<?xml version="1.0" encoding="UTF-8" standalone="no"?>
<svg width="29px" height="29px" viewBox="0 0 29 29" version="1.1" xmlns="http://www.w3.org/2000/svg" xmlns:xlink="http://www.w3.org/1999/xlink">
    <!-- Generator: Sketch 3.8.3 (29802) - http://www.bohemiancoding.com/sketch -->
    <title>post-instagram</title>
    <desc>Created with Sketch.</desc>
    <defs></defs>
    <g id="billistrations" stroke="none" stroke-width="1" fill="none" fill-rule="evenodd">
        <g id="Desktop-HD" transform="translate(-1298.000000, -114.000000)" fill="#000000">
            <g id="post-instagram" transform="translate(1298.000000, 114.000000)">
                <path d="M25.3783625,0 L2.81981806,0 C1.26891812,0 0,1.27999512 0,2.84443359 L0,25.5999023 C0,27.1643408 1.26891812,28.4443359 2.81981806,28.4443359 L25.3783625,28.4443359 C26.9292624,28.4443359 28.1981806,27.1643408 28.1981806,25.5999023 L28.1981806,2.84443359 C28.1981806,1.27999512 26.9292624,0 25.3783625,0 L25.3783625,0 Z M14.0990903,8.53330078 C17.2008901,8.53330078 19.7387264,11.093291 19.7387264,14.222168 C19.7387264,17.3510449 17.2008901,19.9110352 14.0990903,19.9110352 C10.9972904,19.9110352 8.45945417,17.3510449 8.45945417,14.222168 C8.45945417,11.093291 10.9972904,8.53330078 14.0990903,8.53330078 L14.0990903,8.53330078 Z M3.52477257,25.5999023 C3.10179986,25.5999023 2.81981806,25.315459 2.81981806,24.8887939 L2.81981806,12.7999512 L5.78062701,12.7999512 C5.63963611,13.2266162 5.63963611,13.7955029 5.63963611,14.222168 C5.63963611,18.9154834 9.44639049,22.7554687 14.0990903,22.7554687 C18.7517901,22.7554687 22.5585444,18.9154834 22.5585444,14.222168 C22.5585444,13.7955029 22.5585444,13.2266162 22.4175535,12.7999512 L25.3783625,12.7999512 L25.3783625,24.8887939 C25.3783625,25.315459 25.0963807,25.5999023 24.673408,25.5999023 L3.52477257,25.5999023 L3.52477257,25.5999023 Z M25.3783625,6.39997559 C25.3783625,6.82664062 25.0963807,7.11108398 24.673408,7.11108398 L21.8535899,7.11108398 C21.4306172,7.11108398 21.1486354,6.82664062 21.1486354,6.39997559 L21.1486354,3.55554199 C21.1486354,3.12887695 21.4306172,2.84443359 21.8535899,2.84443359 L24.673408,2.84443359 C25.0963807,2.84443359 25.3783625,3.12887695 25.3783625,3.55554199 L25.3783625,6.39997559 L25.3783625,6.39997559 Z" id="Shape"></path>
            </g>
        </g>
    </g>
</svg>