<?xml version="1.0" encoding="UTF-8" standalone="no"?>
<svg width="29px" height="29px" viewBox="0 0 29 29" version="1.1" xmlns="http://www.w3.org/2000/svg" xmlns:xlink="http://www.w3.org/1999/xlink">
    <!-- Generator: Sketch 3.8.3 (29802) - http://www.bohemiancoding.com/sketch -->
    <title>post-tumblr</title>
    <desc>Created with Sketch.</desc>
    <defs></defs>
    <g id="billistrations" stroke="none" stroke-width="1" fill="none" fill-rule="evenodd">
        <g id="Desktop-HD" transform="translate(-1392.000000, -114.000000)" fill="#000000">
            <g id="post-tumblr" transform="translate(1392.000000, 114.000000)">
                <path d="M25.3783625,0 L2.81981806,0 C1.26891812,0 0,1.27999512 0,2.84443359 L0,25.5999023 C0,27.1643408 1.26891812,28.4443359 2.81981806,28.4443359 L25.3783625,28.4443359 C26.9292624,28.4443359 28.1981806,27.1643408 28.1981806,25.5999023 L28.1981806,2.84443359 C28.1981806,1.27999512 26.9292624,0 25.3783625,0 L25.3783625,0 Z M19.7387264,12.7999512 L15.5089993,12.7999512 L15.5089993,18.3465967 C15.5089993,19.3421484 15.6499902,19.9110352 17.0598992,19.9110352 L19.7387264,19.9110352 L19.7387264,24.1776855 C19.7387264,24.1776855 18.3288174,24.3199072 16.7779174,24.3199072 C13.112154,24.3199072 11.2792722,22.0443604 11.2792722,19.4843701 L11.2792722,12.7999512 L8.45945417,12.7999512 L8.45945417,8.81774414 C11.8432358,8.53330078 12.1252176,5.97331055 12.4071994,4.26665039 L15.5089993,4.26665039 L15.5089993,8.53330078 L19.7387264,8.53330078 L19.7387264,12.7999512 L19.7387264,12.7999512 Z" id="Shape"></path>
            </g>
        </g>
    </g>
</svg>