<?xml version="1.0" encoding="UTF-8" standalone="no"?>
<svg width="29px" height="29px" viewBox="0 0 29 29" version="1.1" xmlns="http://www.w3.org/2000/svg" xmlns:xlink="http://www.w3.org/1999/xlink">
    <!-- Generator: Sketch 3.8.3 (29802) - http://www.bohemiancoding.com/sketch -->
    <title>post-twitter</title>
    <desc>Created with Sketch.</desc>
    <defs></defs>
    <g id="billistrations" stroke="none" stroke-width="1" fill="none" fill-rule="evenodd">
        <g id="Desktop-HD" transform="translate(-1251.000000, -114.000000)" fill="#000000">
            <g id="post-twitter" transform="translate(1251.000000, 114.000000)">
                <path d="M25.3783625,0 L2.81981806,0 C1.26891812,0 0,1.27999512 0,2.84443359 L0,25.5999023 C0,27.1643408 1.26891812,28.4443359 2.81981806,28.4443359 L25.3783625,28.4443359 C26.9292624,28.4443359 28.1981806,27.1643408 28.1981806,25.5999023 L28.1981806,2.84443359 C28.1981806,1.27999512 26.9292624,0 25.3783625,0 L25.3783625,0 Z M22.1355717,10.3821826 C21.9945808,16.9243799 17.9058447,21.4754736 11.7022449,21.759917 C9.16440868,21.9021387 7.33152694,21.0488086 5.63963611,20.0532568 C7.47251785,20.3377002 9.86936319,19.6265918 11.1382813,18.4888184 C9.30539958,18.3465967 8.17747236,17.3510449 7.61350875,15.7866064 C8.17747236,15.9288281 8.74143597,15.7866064 9.16440868,15.7866064 C7.47251785,15.2177197 6.34459062,14.222168 6.20359972,11.9466211 C6.62657243,12.2310645 7.19053604,12.3732861 7.75449965,12.3732861 C6.48558153,11.6621777 5.63963611,8.95996582 6.62657243,7.25330566 C8.45945417,9.24440918 10.7153086,10.9510693 14.3810721,11.2355127 C13.3941358,7.25330566 18.7517901,5.11998047 20.8666536,7.82219238 C21.8535899,7.6799707 22.5585444,7.25330566 23.263499,6.9688623 C22.9815172,7.96441406 22.4175535,8.53330078 21.712599,9.1021875 C22.4175535,8.95996582 23.1225081,8.81774414 23.6864717,8.53330078 C23.5454808,9.24440918 22.8405262,9.8132959 22.1355717,10.3821826 L22.1355717,10.3821826 Z" id="Shape"></path>
            </g>
        </g>
    </g>
</svg>