<?xml version="1.0" encoding="UTF-8" standalone="no"?>
<svg width="29px" height="29px" viewBox="0 0 29 29" version="1.1" xmlns="http://www.w3.org/2000/svg" xmlns:xlink="http://www.w3.org/1999/xlink">
    <!-- Generator: Sketch 3.8.3 (29802) - http://www.bohemiancoding.com/sketch -->
    <title>post-facebook</title>
    <desc>Created with Sketch.</desc>
    <defs></defs>
    <g id="billistrations" stroke="none" stroke-width="1" fill="none" fill-rule="evenodd">
        <g id="Desktop-HD" transform="translate(-1204.000000, -114.000000)" fill="#000000">
            <g id="post-facebook" transform="translate(1204.000000, 114.000000)">
                <path d="M25.3783625,0 L2.81981806,0 C1.26891812,0 0,1.27999512 0,2.84443359 L0,25.5999023 C0,27.1643408 1.26891812,28.4443359 2.81981806,28.4443359 L25.3783625,28.4443359 C26.9292624,28.4443359 28.1981806,27.1643408 28.1981806,25.5999023 L28.1981806,2.84443359 C28.1981806,1.27999512 26.9292624,0 25.3783625,0 L25.3783625,0 Z M23.9684535,2.84443359 L23.9684535,7.11108398 L21.1486354,7.11108398 C20.30269,7.11108398 19.7387264,7.6799707 19.7387264,8.53330078 L19.7387264,11.3777344 L23.9684535,11.3777344 L23.9684535,15.6443848 L19.7387264,15.6443848 L19.7387264,25.5999023 L15.5089993,25.5999023 L15.5089993,15.6443848 L12.6891812,15.6443848 L12.6891812,11.3777344 L15.5089993,11.3777344 L15.5089993,7.82219238 C15.5089993,5.11998047 17.7648537,2.84443359 20.4436809,2.84443359 L23.9684535,2.84443359 L23.9684535,2.84443359 Z" id="Shape"></path>
            </g>
        </g>
    </g>
</svg>