<?xml version="1.0" encoding="UTF-8" standalone="no"?>
<svg width="29px" height="29px" viewBox="0 0 29 29" version="1.1" xmlns="http://www.w3.org/2000/svg" xmlns:xlink="http://www.w3.org/1999/xlink">
    <!-- Generator: Sketch 3.8.3 (29802) - http://www.bohemiancoding.com/sketch -->
    <title>post-pinterest</title>
    <desc>Created with Sketch.</desc>
    <defs></defs>
    <g id="billistrations" stroke="none" stroke-width="1" fill="none" fill-rule="evenodd">
        <g id="Desktop-HD" transform="translate(-1345.000000, -114.000000)" fill="#000000">
            <g id="post-pinterest" transform="translate(1345.000000, 114.000000)">
                <path d="M25.3783625,0 L2.81981806,0 C1.26891812,0 0,1.27999512 0,2.84443359 L0,25.5999023 C0,27.1643408 1.26891812,28.4443359 2.81981806,28.4443359 L25.3783625,28.4443359 C26.9292624,28.4443359 28.1981806,27.1643408 28.1981806,25.5999023 L28.1981806,2.84443359 C28.1981806,1.27999512 26.9292624,0 25.3783625,0 L25.3783625,0 Z M15.5089993,20.1954785 C14.3810721,20.1954785 13.2531449,19.7688135 12.5481903,18.9154834 L11.1382813,23.4665771 L10.9972904,23.7510205 C10.7153086,24.1776855 10.2923359,24.4621289 9.72837229,24.4621289 C8.88242687,24.4621289 8.17747236,23.7510205 8.17747236,22.8976904 L8.17747236,22.7554687 L8.17747236,22.7554687 L8.31846326,22.4710254 L10.8562995,14.5066113 C10.8562995,14.5066113 10.5743177,13.6532812 10.5743177,12.3732861 C10.5743177,9.95551758 11.8432358,9.24440918 12.9711631,9.24440918 C13.9580994,9.24440918 14.9450357,9.67107422 14.9450357,11.093291 C14.9450357,12.9421729 13.6761176,13.9377246 13.6761176,15.3599414 C13.6761176,16.3554932 14.522063,17.2088232 15.5089993,17.2088232 C18.7517901,17.2088232 20.0207082,14.648833 20.0207082,12.3732861 C20.0207082,9.24440918 17.341881,6.68441895 14.0990903,6.68441895 C10.8562995,6.68441895 8.17747236,9.24440918 8.17747236,12.3732861 C8.17747236,13.3688379 8.45945417,14.222168 8.88242687,15.075498 C9.02341778,15.3599414 9.02341778,15.5021631 9.02341778,15.7866064 C9.02341778,16.6399365 8.45945417,17.2088232 7.61350875,17.2088232 C7.04954514,17.2088232 6.62657243,16.9243799 6.34459062,16.4977148 C5.63963611,15.2177197 5.2166634,13.7955029 5.2166634,12.2310645 C5.2166634,7.53774902 9.16440868,3.69776367 13.9580994,3.69776367 C18.7517901,3.69776367 22.6995353,7.53774902 22.6995353,12.2310645 C22.8405262,16.2132715 20.5846718,20.1954785 15.5089993,20.1954785 L15.5089993,20.1954785 Z" id="Shape"></path>
            </g>
        </g>
    </g>
</svg>