<?xml version="1.0" encoding="utf-8"?>
<!-- Generator: Adobe Illustrator 18.1.1, SVG Export Plug-In . SVG Version: 6.00 Build 0)  -->
<!DOCTYPE svg PUBLIC "-//W3C//DTD SVG 1.1//EN" "http://www.w3.org/Graphics/SVG/1.1/DTD/svg11.dtd">
<svg version="1.1" xmlns="http://www.w3.org/2000/svg" xmlns:xlink="http://www.w3.org/1999/xlink" x="0px" y="0px"
	 viewBox="0 0 189.2 63.669" enable-background="new 0 0 189.2 63.669" xml:space="preserve">
<g id="Layer_1">
	<g>
		<path d="M14.663,9.021c1.452-0.096,2.767,0.046,3.945,0.426c0.981,0.304,1.924,0.842,2.826,1.615
			c0.902,0.773,1.479,1.921,1.729,3.44c0.204,1.565,0.343,3.037,0.42,4.414c0.076,1.379,0.108,2.6,0.101,3.661
			c-0.003,1.233-0.033,2.382-0.089,3.445c-0.264,0.733-0.652,1.385-1.164,1.956c-0.467,0.485-1.117,0.966-1.947,1.443
			c-0.831,0.478-1.875,0.782-3.131,0.914c-1.305,0.134-2.418,0.229-3.337,0.284c-0.92,0.056-1.695,0.095-2.324,0.118
			c-0.727,0.027-1.333,0.029-1.819,0.005l9.295,1.437c1.216,0.125,2.294,0.403,3.233,0.835c0.837,0.352,1.596,0.844,2.274,1.477
			c0.679,0.634,0.99,1.504,0.935,2.61c-0.056,1.107-0.116,2.427-0.179,3.958c-0.064,1.532-0.143,3.001-0.235,4.407
			c-0.132,1.662-0.239,3.345-0.321,5.047c-0.08,0.472-0.306,0.904-0.679,1.301c-0.327,0.353-0.823,0.689-1.49,1.012
			c-0.667,0.322-1.606,0.528-2.815,0.615c-1.257,0.133-2.804,0.264-4.642,0.396c-1.839,0.133-3.653,0.274-5.442,0.427
			c-2.08,0.162-4.233,0.327-6.458,0.496c-0.987-8.206-1.652-15.946-1.997-23.222c-0.345-7.273-0.478-14.396-0.399-21.369
			c2.265-0.381,4.571-0.67,6.917-0.864C10.215,9.114,12.48,9.018,14.663,9.021z"/>
		<path d="M26.554,53.252c-0.161-7.642-0.314-15.306-0.46-22.993c-0.146-7.687-0.245-15.597-0.296-23.73l4.688-0.137l1.36,46.706
			L26.554,53.252z"/>
		<path d="M34.367,54.893c-0.631-6.706-1.114-13.534-1.45-20.485c-0.336-6.949-0.675-14.069-1.013-21.359l6.476-0.516l2.899,36.412
			l14.319-1.141c0.073,0.315,0.151,0.688,0.234,1.121c0.082,0.435,0.155,0.897,0.219,1.392c0.063,0.496,0.115,0.991,0.155,1.487
			c0.04,0.497,0.075,0.944,0.107,1.341L34.367,54.893z"/>
		<path d="M42.873,47.461c-0.073-7.479-0.027-15.08,0.135-22.804c0.163-7.723,0.333-15.634,0.515-23.733h4.875v40.563h10.78
			c0.035,0.354,0.072,0.774,0.108,1.262c0.036,0.487,0.063,1.007,0.082,1.56c0.018,0.554,0.027,1.107,0.027,1.66
			c0,0.554,0,1.052,0,1.493H42.873z"/>
		<path d="M50.512,36.88c0.072-5.631,0.153-11.279,0.244-16.944C50.846,14.271,51,8.443,51.217,2.45h5.476v34.43H50.512z"/>
		<path d="M58.329,58.504l-0.693-5.492l9.191,0.578c0.847-0.076,1.619-0.23,2.313-0.462c0.578-0.192,1.117-0.511,1.619-0.954
			c0.5-0.442,0.789-1.05,0.867-1.82c0.077-0.771,0.105-1.465,0.086-2.081c-0.02-0.616-0.029-1.137-0.029-1.562
			c-0.039-0.5-0.058-0.963-0.058-1.387c-0.039-0.578-0.155-1.099-0.347-1.562c-0.193-0.385-0.453-0.741-0.78-1.069
			c-0.328-0.326-0.819-0.491-1.474-0.491c-0.656,0-1.301-0.009-1.937-0.028s-1.205-0.067-1.705-0.145
			c-0.617-0.038-1.176-0.096-1.677-0.174c-1.002-0.231-1.87-0.636-2.601-1.214c-0.656-0.5-1.253-1.204-1.792-2.11
			c-0.54-0.904-0.771-2.109-0.694-3.612c0.038-1.503,0.067-2.929,0.087-4.278c0.019-1.348,0.009-2.543-0.029-3.584
			c-0.039-1.232-0.078-2.369-0.116-3.41c-0.039-1.002,0.096-1.907,0.405-2.717c0.269-0.655,0.712-1.271,1.33-1.85
			c0.616-0.578,1.58-0.887,2.89-0.925c1.271-0.038,2.63-0.077,4.075-0.116c1.445-0.038,2.784-0.096,4.018-0.173
			c1.425-0.077,2.852-0.154,4.278-0.231l0.116,6.705l-8.44-0.289c-0.656,0.078-1.214,0.252-1.676,0.521
			c-0.425,0.231-0.81,0.578-1.156,1.041c-0.347,0.462-0.52,1.098-0.52,1.907c-0.039,0.81-0.058,1.6-0.058,2.37
			c0,0.771-0.02,1.465-0.058,2.081c-0.039,0.693-0.058,1.35-0.058,1.966c-0.039,0.501,0.019,0.963,0.174,1.387
			c0.153,0.347,0.404,0.675,0.751,0.982c0.347,0.31,0.867,0.502,1.561,0.578c0.81,0.078,1.59,0.126,2.341,0.145
			c0.751,0.021,1.396,0.029,1.937,0.029c0.655,0,1.271-0.019,1.85-0.058c0.732-0.038,1.406,0.136,2.023,0.521
			c0.539,0.309,1.021,0.848,1.445,1.618c0.424,0.771,0.636,1.946,0.636,3.526s-0.01,3.055-0.029,4.422
			c-0.02,1.368-0.048,2.572-0.086,3.613c-0.039,1.233-0.058,2.351-0.058,3.353c-0.078,0.771-0.328,1.465-0.752,2.081
			c-0.347,0.54-0.858,1.021-1.532,1.445c-0.675,0.424-1.628,0.655-2.861,0.693L58.329,58.504z"/>
		<path d="M69.716,15.803c-0.02-0.269-0.049-0.672-0.089-1.211c-0.04-0.538-0.082-1.114-0.127-1.729
			c-0.045-0.614-0.079-1.201-0.101-1.76c-0.022-0.558-0.023-0.974-0.004-1.246l20.146-1.132c0.078,0.536,0.154,1.052,0.23,1.548
			c0.069,0.421,0.141,0.869,0.215,1.347c0.073,0.478,0.123,0.889,0.148,1.235l0.055,0.749l-8.475,0.623
			c0.443,6.034,0.998,12.003,1.663,17.904c0.666,5.902,1.208,11.716,1.629,17.442l-5.65,0.415l-2.549-34.706L69.716,15.803z"/>
		<path d="M102.288,35.829c0,1.009-0.145,1.959-0.433,2.853c-0.289,0.894-0.668,1.719-1.137,2.475
			c-0.469,0.757-1.011,1.444-1.624,2.063c-0.614,0.619-1.264,1.158-1.949,1.615c0.396,1.237,0.83,2.567,1.299,3.987
			c0.469,1.421,0.947,2.864,1.435,4.331s0.975,2.933,1.461,4.398c0.487,1.468,0.947,2.865,1.38,4.193
			c-0.145,0.184-0.397,0.367-0.758,0.55c-0.361,0.184-0.758,0.355-1.191,0.516s-0.848,0.32-1.245,0.481
			c-0.397,0.16-0.686,0.286-0.866,0.378l-6.658-18.078v17.116H87.51c0-1.604-0.045-3.688-0.135-6.256
			c-0.09-2.565-0.189-5.361-0.297-8.386c-0.108-3.025-0.226-6.163-0.352-9.418c-0.127-3.253-0.235-6.381-0.325-9.383
			c-0.091-3.001-0.154-5.763-0.189-8.283c-0.037-2.52-0.019-4.56,0.054-6.118c0.541-0.045,1.226-0.079,2.057-0.103
			c0.83-0.023,1.696-0.046,2.599-0.069c0.901-0.022,1.794-0.034,2.679-0.034c0.884,0,1.632,0,2.247,0
			c0.649,0,1.344,0.149,2.084,0.447c0.739,0.298,1.435,0.722,2.084,1.271c0.65,0.55,1.191,1.237,1.624,2.062
			c0.433,0.825,0.649,1.742,0.649,2.75V35.829z"/>
		<path d="M106.381,12.932c0.617,0.047,1.348,0.102,2.194,0.166c0.845,0.064,1.689,0.128,2.535,0.192
			c0.845,0.063,1.656,0.146,2.433,0.242c0.777,0.098,1.424,0.186,1.941,0.264l1.004,40.425l-4.193-0.318
			c-0.027-0.93-0.063-2.082-0.105-3.457s-0.083-2.779-0.122-4.213c-0.039-1.432-0.09-2.808-0.153-4.127
			c-0.064-1.318-0.164-2.369-0.3-3.153l-4.136-1.067c-0.622,2.156-1.123,4.563-1.503,7.22c-0.382,2.657-0.859,5.394-1.432,8.21
			l-4.193-0.317L106.381,12.932z"/>
		<path d="M110.985,12.078c0-0.295,0-0.739,0-1.331c0-0.591,0-1.225,0-1.901c0-0.675,0.009-1.32,0.028-1.933
			c0.018-0.612,0.046-1.066,0.084-1.363l19.63,0.38c0.037,0.592,0.075,1.163,0.113,1.711c0.037,0.465,0.075,0.961,0.112,1.489
			c0.037,0.529,0.056,0.982,0.056,1.362v0.824h-8.268c0,6.633,0.112,13.204,0.337,19.709c0.225,6.508,0.337,12.908,0.337,19.204
			h-5.512V12.078H110.985z"/>
		<path d="M124.917,55.001c0.046-6.628,0.098-13.275,0.156-19.943c0.057-6.666,0.156-13.526,0.294-20.579h3.5v40.522H124.917z"/>
		<path d="M129.736,17.478c0.038-1.041,0.231-1.966,0.578-2.774c0.308-0.694,0.789-1.339,1.445-1.937
			c0.655-0.598,1.599-0.915,2.833-0.954c1.233-0.038,2.399-0.058,3.498-0.058c1.098,0,2.071,0.02,2.918,0.058
			c1.002,0.039,1.908,0.077,2.717,0.115c0.926,0.154,1.754,0.443,2.486,0.867c0.615,0.386,1.186,0.954,1.705,1.705
			c0.521,0.752,0.781,1.783,0.781,3.093c0,0.656,0,1.581,0,2.775s-0.01,2.563-0.029,4.104c-0.02,1.542-0.039,3.18-0.059,4.914
			s-0.027,3.449-0.027,5.145c-0.039,4.009-0.078,8.344-0.117,13.007c0,0.616-0.105,1.214-0.316,1.792
			c-0.213,0.578-0.502,1.098-0.867,1.561c-0.367,0.462-0.811,0.838-1.33,1.127c-0.521,0.289-1.09,0.434-1.705,0.434
			c-0.771,0.038-1.715,0.048-2.832,0.029c-1.119-0.021-2.217-0.049-3.296-0.087c-1.272-0.039-2.563-0.058-3.873-0.058
			c-1.85-0.309-3.093-1.069-3.729-2.283s-0.916-2.707-0.838-4.48L129.736,17.478z"/>
		<path d="M150.966,54.835L150.582,7.83l4.013,0.269l5.892,30.731l0.427-31.941l4.184,0.807l-0.598,47.677l-4.354-0.27
			l-5.464-28.041l0.64,27.906L150.966,54.835z"/>
		<path d="M166.749,58.553l-0.974-6.191l11.543,0.461c1.062-0.104,2.026-0.296,2.893-0.571c0.722-0.229,1.393-0.601,2.013-1.112
			c0.62-0.511,0.971-1.202,1.054-2.076c0.082-0.872,0.105-1.656,0.069-2.354c-0.036-0.695-0.058-1.283-0.065-1.764
			c-0.059-0.564-0.091-1.087-0.099-1.566c-0.06-0.652-0.215-1.238-0.465-1.757c-0.25-0.431-0.583-0.828-0.999-1.192
			c-0.418-0.362-1.037-0.538-1.858-0.524c-0.823,0.014-1.633,0.018-2.431,0.008c-0.798-0.008-1.513-0.05-2.143-0.127
			c-0.774-0.03-1.478-0.084-2.106-0.161c-1.263-0.24-2.358-0.68-3.287-1.317c-0.832-0.552-1.594-1.335-2.288-2.348
			c-0.694-1.011-1.008-2.368-0.938-4.068c0.02-1.699,0.028-3.311,0.028-4.836c-0.002-1.525-0.037-2.875-0.104-4.051
			c-0.072-1.393-0.143-2.677-0.21-3.852c-0.067-1.132,0.084-2.158,0.457-3.079c0.325-0.746,0.87-1.452,1.633-2.118
			c0.762-0.667,1.966-1.035,3.609-1.106c1.595-0.069,3.299-0.142,5.111-0.216c1.813-0.073,3.49-0.167,5.037-0.28
			c1.787-0.116,3.575-0.233,5.362-0.351l0.272,7.576l-10.595-0.15c-0.821,0.102-1.519,0.31-2.094,0.623
			c-0.528,0.271-1.005,0.671-1.432,1.2c-0.426,0.53-0.632,1.252-0.616,2.167c-0.033,0.915-0.043,1.809-0.028,2.68
			c0.015,0.872,0.003,1.656-0.033,2.354c-0.035,0.784-0.047,1.526-0.035,2.223c-0.039,0.567,0.042,1.089,0.244,1.563
			c0.199,0.39,0.521,0.755,0.961,1.096c0.441,0.342,1.098,0.548,1.97,0.62c1.017,0.071,1.996,0.108,2.939,0.114
			c0.943,0.007,1.753,0.004,2.431-0.008c0.821-0.014,1.595-0.048,2.319-0.104c0.918-0.059,1.768,0.123,2.549,0.545
			c0.683,0.338,1.297,0.938,1.844,1.799c0.546,0.863,0.834,2.188,0.864,3.973c0.03,1.786,0.045,3.452,0.047,4.998
			c0.001,1.547-0.013,2.908-0.04,4.085c-0.025,1.396-0.028,2.658-0.01,3.791c-0.083,0.873-0.384,1.662-0.903,2.367
			c-0.425,0.618-1.058,1.173-1.895,1.666c-0.839,0.493-2.031,0.774-3.577,0.844L166.749,58.553z"/>
	</g>
</g>
<g id="Layer_2" display="none">
	<g display="inline">
		<g>
			<path d="M-37.522,13.505c1.452-0.096,2.767,0.047,3.945,0.426c0.981,0.305,1.924,0.843,2.826,1.615
				c0.902,0.774,1.479,1.922,1.729,3.441c0.204,1.564,0.343,3.037,0.42,4.414c0.076,1.379,0.109,2.6,0.101,3.661
				c-0.003,1.233-0.033,2.382-0.089,3.445c-0.264,0.733-0.652,1.385-1.164,1.956c-0.467,0.485-1.117,0.966-1.947,1.443
				c-0.831,0.477-1.875,0.781-3.131,0.914c-1.305,0.134-4.282,0.998-4.768,0.973l6.583,0.871c1.217,0.125,2.294,0.402,3.233,0.835
				c0.837,0.351,1.596,0.844,2.274,1.477c0.679,0.634,0.99,1.503,0.935,2.61c-0.056,1.107-0.116,2.426-0.179,3.958
				c-0.064,1.532-0.143,3.001-0.235,4.407c-0.132,1.662-0.239,3.345-0.321,5.047c-0.08,0.471-0.306,0.904-0.679,1.301
				c-0.327,0.353-0.823,0.689-1.49,1.012c-0.667,0.322-1.606,0.527-2.815,0.615c-1.257,0.133-2.804,0.264-4.642,0.396
				c-1.839,0.133-3.653,0.273-5.442,0.426c-2.08,0.163-4.233,0.328-6.458,0.497c-0.987-8.206-1.652-15.946-1.997-23.222
				c-0.345-7.273-0.478-14.396-0.399-21.369c2.265-0.381,4.571-0.67,6.917-0.864C-41.969,13.599-39.705,13.503-37.522,13.505z"/>
			<path d="M-25.147,57.801c-0.161-7.642-0.314-15.306-0.46-22.993c-0.146-7.687-0.245-15.597-0.296-23.731l4.688-0.136l1.36,46.707
				L-25.147,57.801z"/>
			<path d="M-17.334,59.442c-0.631-6.707-1.114-13.535-1.45-20.485c-0.336-6.95-0.675-14.069-1.013-21.36l6.476-0.516l2.899,36.413
				l14.319-1.141c0.073,0.315,0.151,0.688,0.234,1.121c0.082,0.435,0.155,0.897,0.219,1.392c0.063,0.496,0.115,0.99,0.155,1.487
				s0.075,0.944,0.107,1.341L-17.334,59.442z"/>
			<path d="M-8.827,52.01c-0.073-7.479-0.027-15.08,0.135-22.805c0.163-7.723,0.333-15.633,0.515-23.733h4.875v40.563h10.78
				c0.036,0.354,0.072,0.774,0.108,1.262c0.036,0.486,0.063,1.007,0.082,1.56c0.018,0.554,0.027,1.106,0.027,1.659
				c0,0.555,0,1.053,0,1.494H-8.827z"/>
			<path d="M-1.188,41.429c0.072-5.632,0.153-11.28,0.244-16.944C-0.854,18.82-0.7,12.991-0.483,6.999h5.476v34.43H-1.188z"/>
			<path d="M6.628,63.053l-0.693-5.492l9.191,0.578c0.847-0.076,1.619-0.23,2.312-0.463c0.578-0.191,1.117-0.51,1.619-0.953
				c0.5-0.443,0.789-1.05,0.867-1.82c0.077-0.771,0.105-1.465,0.086-2.082c-0.02-0.615-0.029-1.136-0.029-1.561
				c-0.039-0.5-0.058-0.963-0.058-1.387c-0.039-0.578-0.155-1.099-0.347-1.562c-0.193-0.385-0.453-0.741-0.78-1.069
				c-0.328-0.326-0.819-0.491-1.474-0.491c-0.656,0-1.301-0.009-1.937-0.028c-0.636-0.02-1.205-0.067-1.705-0.145
				c-0.617-0.039-1.176-0.096-1.677-0.174c-1.002-0.231-1.87-0.637-2.601-1.215c-0.656-0.5-1.253-1.203-1.792-2.109
				c-0.54-0.904-0.771-2.109-0.694-3.613c0.038-1.502,0.067-2.928,0.087-4.277c0.019-1.348,0.009-2.543-0.029-3.584
				c-0.039-1.232-0.078-2.369-0.116-3.41c-0.039-1.002,0.096-1.908,0.405-2.717c0.269-0.655,0.712-1.271,1.33-1.85
				c0.616-0.578,1.58-0.887,2.89-0.926c1.271-0.037,2.63-0.076,4.075-0.115c1.445-0.038,2.784-0.096,4.018-0.174
				c1.425-0.076,2.852-0.153,4.278-0.23l0.116,6.705l-8.44-0.289c-0.656,0.078-1.214,0.252-1.676,0.521
				c-0.425,0.231-0.81,0.578-1.156,1.04c-0.347,0.463-0.52,1.099-0.52,1.908c-0.039,0.809-0.058,1.6-0.058,2.369
				c0,0.771-0.02,1.466-0.058,2.082c-0.039,0.693-0.058,1.35-0.058,1.965c-0.039,0.502,0.019,0.964,0.174,1.388
				c0.153,0.347,0.404,0.675,0.751,0.982c0.347,0.31,0.867,0.501,1.561,0.578c0.81,0.077,1.59,0.126,2.341,0.145
				c0.751,0.021,1.396,0.028,1.937,0.028c0.655,0,1.271-0.018,1.85-0.057c0.732-0.039,1.406,0.135,2.023,0.52
				c0.539,0.309,1.021,0.849,1.445,1.619c0.424,0.771,0.636,1.946,0.636,3.525c0,1.581-0.01,3.055-0.029,4.423
				c-0.02,1.368-0.048,2.572-0.086,3.612c-0.039,1.234-0.058,2.352-0.058,3.354c-0.078,0.771-0.328,1.465-0.752,2.08
				c-0.347,0.541-0.858,1.021-1.532,1.445c-0.675,0.425-1.628,0.656-2.861,0.694L6.628,63.053z"/>
			<path d="M18.016,20.352c-0.02-0.27-0.049-0.672-0.089-1.211c-0.04-0.538-0.082-1.115-0.127-1.73
				c-0.045-0.613-0.079-1.201-0.101-1.76c-0.022-0.559-0.023-0.974-0.004-1.246l20.146-1.132c0.078,0.536,0.154,1.052,0.23,1.548
				c0.069,0.421,0.141,0.869,0.215,1.347c0.073,0.478,0.123,0.89,0.148,1.235l0.055,0.749l-8.475,0.622
				c0.443,6.035,0.998,12.004,1.663,17.904c0.666,5.902,1.208,11.717,1.629,17.443l-5.65,0.415l-2.549-34.706L18.016,20.352z"/>
			<path d="M50.587,40.378c0,1.009-0.145,1.959-0.433,2.853c-0.289,0.894-0.668,1.719-1.137,2.475
				c-0.469,0.756-1.011,1.443-1.624,2.063c-0.614,0.619-1.264,1.158-1.949,1.615c0.396,1.237,0.83,2.566,1.299,3.986
				c0.469,1.422,0.947,2.865,1.435,4.332s0.975,2.933,1.461,4.398c0.487,1.467,0.947,2.865,1.38,4.193
				c-0.145,0.184-0.397,0.367-0.758,0.55c-0.361,0.184-0.758,0.355-1.191,0.516s-0.848,0.32-1.245,0.481
				c-0.397,0.16-0.686,0.285-0.866,0.378l-6.658-18.079v17.117H35.81c0-1.604-0.045-3.689-0.135-6.256
				c-0.09-2.566-0.189-5.361-0.297-8.387c-0.108-3.024-0.226-6.162-0.352-9.417c-0.127-3.253-0.235-6.382-0.325-9.384
				c-0.091-3-0.154-5.762-0.189-8.283c-0.037-2.52-0.019-4.559,0.054-6.117c0.541-0.045,1.226-0.08,2.057-0.104
				c0.83-0.021,1.696-0.045,2.599-0.068c0.901-0.022,1.794-0.034,2.679-0.034c0.884,0,1.632,0,2.247,0
				c0.649,0,1.344,0.149,2.084,0.446c0.739,0.299,1.435,0.723,2.084,1.271c0.65,0.551,1.191,1.238,1.624,2.063
				c0.433,0.825,0.649,1.742,0.649,2.75V40.378z"/>
			<path d="M54.681,17.481c0.617,0.047,1.348,0.102,2.194,0.166c0.845,0.064,1.689,0.128,2.535,0.191
				c0.845,0.064,1.656,0.146,2.433,0.243c0.777,0.098,1.424,0.186,1.941,0.263l1.004,40.426l-4.193-0.318
				c-0.027-0.93-0.063-2.082-0.105-3.457s-0.083-2.779-0.122-4.213c-0.039-1.432-0.09-2.809-0.153-4.127
				c-0.064-1.318-0.164-2.369-0.3-3.154l-4.136-1.066c-0.622,2.156-1.123,4.563-1.503,7.219c-0.382,2.658-0.859,5.395-1.432,8.211
				l-4.193-0.318L54.681,17.481z"/>
			<path d="M59.285,16.627c0-0.295,0-0.738,0-1.331c0-0.591,0-1.226,0-1.901c0-0.675,0.009-1.32,0.028-1.933
				c0.018-0.612,0.046-1.066,0.084-1.363l19.63,0.38c0.037,0.592,0.075,1.163,0.113,1.711c0.037,0.465,0.075,0.962,0.112,1.489
				c0.037,0.529,0.056,0.982,0.056,1.363v0.823H71.04c0,6.634,0.113,13.204,0.337,19.71c0.225,6.508,0.337,12.908,0.337,19.203
				h-5.512V16.627H59.285z"/>
			<path d="M73.217,59.55c0.046-6.628,0.098-13.275,0.156-19.943c0.057-6.667,0.156-13.526,0.294-20.579h3.5V59.55H73.217z"/>
			<path d="M78.036,22.026c0.038-1.04,0.231-1.965,0.578-2.773c0.308-0.694,0.789-1.34,1.445-1.938
				c0.655-0.597,1.599-0.914,2.833-0.953c1.233-0.038,2.399-0.059,3.498-0.059c1.098,0,2.071,0.021,2.919,0.059
				c1.002,0.039,1.908,0.077,2.717,0.115c0.925,0.154,1.754,0.443,2.486,0.867c0.615,0.386,1.185,0.953,1.705,1.705
				s0.78,1.783,0.78,3.093c0,0.655,0,1.581,0,2.774c0,1.195-0.01,2.563-0.029,4.104c-0.02,1.542-0.038,3.18-0.058,4.913
				c-0.02,1.734-0.028,3.45-0.028,5.146c-0.039,4.009-0.078,8.344-0.116,13.007c0,0.616-0.106,1.213-0.317,1.791
				c-0.213,0.578-0.502,1.099-0.867,1.561c-0.367,0.463-0.81,0.839-1.33,1.128S93.162,57,92.545,57
				c-0.771,0.038-1.715,0.048-2.832,0.028c-1.118-0.02-2.217-0.049-3.295-0.086c-1.272-0.039-2.563-0.059-3.873-0.059
				c-1.85-0.308-3.093-1.068-3.729-2.283c-0.636-1.213-0.916-2.707-0.838-4.479L78.036,22.026z"/>
			<path d="M99.266,59.383l-0.384-47.004l4.013,0.269l5.892,30.731l0.427-31.942l4.185,0.807l-0.599,47.678l-4.354-0.27
				l-5.464-28.041l0.64,27.906L99.266,59.383z"/>
			<path d="M115.049,63.102l-0.974-6.191l11.543,0.461c1.062-0.105,2.026-0.296,2.893-0.572c0.722-0.229,1.393-0.6,2.013-1.111
				c0.62-0.511,0.971-1.203,1.054-2.076c0.082-0.873,0.105-1.656,0.069-2.354c-0.036-0.695-0.058-1.283-0.065-1.764
				c-0.059-0.564-0.091-1.087-0.099-1.566c-0.06-0.652-0.215-1.238-0.465-1.757c-0.25-0.431-0.583-0.829-0.999-1.192
				c-0.418-0.363-1.037-0.538-1.858-0.524c-0.823,0.014-1.633,0.017-2.431,0.008s-1.513-0.05-2.143-0.128
				c-0.774-0.029-1.478-0.084-2.106-0.16c-1.263-0.24-2.357-0.68-3.287-1.318c-0.832-0.551-1.594-1.334-2.288-2.347
				c-0.694-1.012-1.008-2.368-0.938-4.069c0.02-1.699,0.029-3.311,0.028-4.836c-0.002-1.524-0.037-2.875-0.104-4.05
				c-0.072-1.393-0.143-2.677-0.21-3.853c-0.067-1.131,0.084-2.158,0.457-3.078c0.325-0.746,0.87-1.453,1.633-2.119
				c0.762-0.666,1.966-1.034,3.609-1.105c1.595-0.07,3.299-0.143,5.111-0.217c1.813-0.072,3.49-0.166,5.037-0.279
				c1.787-0.117,3.575-0.233,5.363-0.352l0.271,7.576l-10.595-0.149c-0.821,0.102-1.519,0.31-2.094,0.623
				c-0.528,0.271-1.005,0.67-1.432,1.2c-0.426,0.529-0.632,1.252-0.616,2.166c-0.033,0.916-0.043,1.81-0.028,2.681
				c0.015,0.872,0.003,1.655-0.033,2.353c-0.035,0.785-0.047,1.527-0.035,2.223c-0.039,0.568,0.042,1.089,0.244,1.564
				c0.199,0.389,0.521,0.754,0.961,1.096c0.441,0.342,1.098,0.548,1.97,0.62c1.017,0.071,1.996,0.108,2.939,0.114
				c0.943,0.007,1.753,0.004,2.431-0.008c0.821-0.014,1.595-0.049,2.319-0.104c0.918-0.059,1.768,0.123,2.549,0.545
				c0.683,0.338,1.297,0.938,1.844,1.799c0.546,0.863,0.835,2.187,0.864,3.973c0.03,1.786,0.045,3.452,0.047,4.998
				c0.001,1.547-0.013,2.908-0.04,4.085c-0.025,1.396-0.028,2.658-0.01,3.79c-0.083,0.874-0.384,1.663-0.903,2.368
				c-0.425,0.618-1.058,1.173-1.895,1.665c-0.839,0.494-2.031,0.775-3.577,0.844L115.049,63.102z"/>
		</g>
		<g>
			<path d="M142.351,57.195l-3.035-0.161c-0.158-0.016-0.313,0.014-0.461,0.086c-0.123,0.065-0.247,0.173-0.373,0.325
				c-0.126,0.151-0.228,0.381-0.307,0.688c-0.048,0.202-0.11,0.503-0.187,0.905c-0.076,0.401-0.157,0.845-0.242,1.331
				s-0.171,0.991-0.257,1.515c-0.085,0.523-0.161,1.006-0.225,1.446c-0.065,0.44-0.109,0.816-0.133,1.128
				c-0.024,0.312-0.024,0.506,0,0.585c0.043,0.106,0.084,0.204,0.125,0.291c0.041,0.088,0.098,0.165,0.173,0.234
				s0.179,0.131,0.311,0.185c0.133,0.055,0.308,0.101,0.524,0.139s0.485,0.072,0.808,0.104c0.322,0.031,0.629,0.061,0.922,0.088
				c0.342,0.022,0.698,0.042,1.066,0.057l-0.157,1.532l-3.221-0.269c-1.659-0.142-2.423-1.006-2.292-2.593l1.723-8.555
				c0.043-0.179,0.134-0.342,0.272-0.491c0.119-0.115,0.288-0.229,0.505-0.338c0.218-0.111,0.507-0.178,0.87-0.2
				c0.363-0.023,0.756-0.035,1.177-0.035c0.421-0.001,0.822,0.002,1.206,0.007s0.722,0.015,1.016,0.03
				c0.294,0.014,0.502,0.031,0.622,0.053L142.351,57.195z"/>
			<path d="M142.761,57.081c0.069-0.322,0.18-0.6,0.332-0.833c0.134-0.199,0.319-0.374,0.556-0.524
				c0.236-0.15,0.548-0.198,0.936-0.143c0.386,0.056,0.75,0.113,1.093,0.173c0.342,0.061,0.644,0.12,0.906,0.178
				c0.31,0.067,0.59,0.129,0.841,0.186c0.279,0.098,0.522,0.233,0.727,0.405c0.171,0.154,0.317,0.362,0.438,0.625
				s0.146,0.599,0.074,1.006c-0.036,0.205-0.086,0.493-0.151,0.865c-0.065,0.372-0.143,0.798-0.233,1.277
				c-0.091,0.479-0.186,0.989-0.287,1.528c-0.101,0.539-0.198,1.073-0.291,1.602c-0.231,1.247-0.48,2.596-0.748,4.047
				c-0.034,0.192-0.099,0.373-0.196,0.541c-0.098,0.169-0.217,0.314-0.356,0.439c-0.139,0.123-0.298,0.217-0.476,0.278
				c-0.178,0.062-0.363,0.076-0.555,0.042c-0.243-0.031-0.538-0.079-0.885-0.146c-0.347-0.066-0.688-0.136-1.022-0.207
				c-0.394-0.081-0.796-0.158-1.204-0.229c-0.56-0.197-0.905-0.502-1.037-0.915c-0.131-0.413-0.138-0.895-0.016-1.442
				L142.761,57.081z"/>
			<path d="M147.052,69.031l2.074-12.449l1.662,0.051l2.025,6.557l3.271-5.627l1.459,0.256l-1.754,12.857l-1.62-0.396l1.318-8.255
				l-2.608,3.646l-1.17-0.205l-1.426-4.893l-1.752,8.718L147.052,69.031z"/>
		</g>
		<g>
			<path d="M-74.775,57.38l2.65,9.286l-0.13-9.736l1.839-0.317l2.72,9.067L-68.784,56c0.314-0.049,0.597-0.097,0.849-0.146
				c0.218-0.029,0.419-0.063,0.604-0.099c0.186-0.035,0.303-0.058,0.351-0.067c0.012-0.002,0.038,0.186,0.08,0.563
				s0.088,0.874,0.14,1.491c0.05,0.617,0.103,1.321,0.156,2.112c0.053,0.79,0.109,1.597,0.168,2.416
				c0.139,1.937,0.282,4.131,0.434,6.586l-2.338,0.339l-2.224-7.469l0.238,7.89l-2.54,0.453l-3.455-12.204L-74.775,57.38z"/>
			<path d="M-65.456,55.581l2.65,9.286l-0.129-9.736l1.839-0.317l2.72,9.067l-1.088-9.681c0.313-0.049,0.597-0.097,0.848-0.146
				c0.219-0.029,0.42-0.063,0.605-0.099c0.186-0.035,0.303-0.058,0.351-0.067c0.011-0.002,0.038,0.186,0.08,0.562
				c0.042,0.378,0.088,0.875,0.139,1.492c0.051,0.617,0.104,1.321,0.156,2.112c0.054,0.79,0.11,1.597,0.169,2.416
				c0.138,1.937,0.282,4.131,0.434,6.585l-2.338,0.34l-2.225-7.469l0.239,7.89l-2.54,0.453l-3.455-12.204L-65.456,55.581z"/>
			<path d="M-56.135,53.781l2.65,9.286l-0.13-9.736l1.839-0.317l2.721,9.067l-1.088-9.681c0.313-0.049,0.597-0.097,0.848-0.146
				c0.218-0.029,0.419-0.063,0.604-0.099c0.186-0.035,0.303-0.058,0.351-0.067c0.012-0.002,0.039,0.185,0.08,0.562
				c0.042,0.378,0.089,0.875,0.14,1.492s0.103,1.321,0.156,2.112c0.053,0.79,0.109,1.597,0.169,2.416
				c0.138,1.937,0.281,4.131,0.433,6.585l-2.337,0.34l-2.225-7.469l0.238,7.89l-2.539,0.453l-3.456-12.204L-56.135,53.781z"/>
		</g>
		<g>
			<circle cx="-46.195" cy="60.949" r="3.167"/>
		</g>
		<g>
			<circle cx="133.972" cy="63.116" r="3.167"/>
		</g>
	</g>
</g>
<g id="Layer_3" display="none">
	<path display="inline" d="M-28.531,29.043c0,0.007,0.002,0.055,0.004,0.137c0.018,0.723,0.024,4.106-1.745,5.753
		c0,0,3.854,3.085,3.7,6.496c-0.193,0.007-10.135,1.131-10.68,0.926c-0.545-0.204-4.63-6.026-4.426-6.503
		c0.204-0.477,2.519-2.996,3.473-3.405"/>
</g>
</svg>
