<?xml version="1.0" encoding="utf-8"?>
<!-- Generator: Adobe Illustrator 18.1.1, SVG Export Plug-In . SVG Version: 6.00 Build 0)  -->
<!DOCTYPE svg PUBLIC "-//W3C//DTD SVG 1.1//EN" "http://www.w3.org/Graphics/SVG/1.1/DTD/svg11.dtd">
<svg version="1.1" id="Layer_1" xmlns="http://www.w3.org/2000/svg" xmlns:xlink="http://www.w3.org/1999/xlink" x="0px" y="0px"
	 viewBox="0 319.9 595.3 207" enable-background="new 0 319.9 595.3 207" xml:space="preserve">
<g id="Layer_1_1_">
	<g>
		<path fill="#FFFFFF" d="M46.1,349.2c4.6-0.3,8.7,0.1,12.4,1.3c3.1,1,6.1,2.6,8.9,5.1c2.8,2.4,4.7,6,5.4,10.8
			c0.6,4.9,1.1,9.6,1.3,13.9c0.2,4.3,0.3,8.2,0.3,11.5c0,3.9-0.1,7.5-0.3,10.8c-0.8,2.3-2.1,4.4-3.7,6.2c-1.5,1.5-3.5,3-6.1,4.5
			c-2.6,1.5-5.9,2.5-9.9,2.9c-4.1,0.4-7.6,0.7-10.5,0.9c-2.9,0.2-5.3,0.3-7.3,0.4c-2.3,0.1-4.2,0.1-5.7,0l29.2,4.5
			c3.8,0.4,7.2,1.3,10.2,2.6c2.6,1.1,5,2.7,7.2,4.6c2.1,2,3.1,4.7,2.9,8.2c-0.2,3.5-0.4,7.6-0.6,12.5c-0.2,4.8-0.4,9.4-0.7,13.9
			c-0.4,5.2-0.8,10.5-1,15.9c-0.3,1.5-1,2.8-2.1,4.1c-1,1.1-2.6,2.2-4.7,3.2c-2.1,1-5.1,1.7-8.9,1.9c-4,0.4-8.8,0.8-14.6,1.2
			c-5.8,0.4-11.5,0.9-17.1,1.3c-6.5,0.5-13.3,1-20.3,1.6c-3.1-25.8-5.2-50.2-6.3-73.1c-1.1-22.9-1.5-45.3-1.3-67.2
			c7.1-1.2,14.4-2.1,21.8-2.7C32.1,349.5,39.3,349.2,46.1,349.2z"/>
		<path fill="#FFFFFF" d="M83.5,488.3c-0.5-24-1-48.2-1.4-72.3s-0.8-49.1-0.9-74.7l14.7-0.4l4.3,147L83.5,488.3z"/>
		<path fill="#FFFFFF" d="M108.1,493.5c-2-21.1-3.5-42.6-4.6-64.5c-1.1-21.9-2.1-44.3-3.2-67.2l20.4-1.6l9.1,114.6l45.1-3.6
			c0.2,1,0.5,2.2,0.7,3.5c0.3,1.4,0.5,2.8,0.7,4.4c0.2,1.6,0.4,3.1,0.5,4.7c0.1,1.6,0.2,3,0.3,4.2L108.1,493.5z"/>
		<path fill="#FFFFFF" d="M134.9,470.1c-0.2-23.5-0.1-47.4,0.4-71.7c0.5-24.3,1-49.2,1.6-74.7h15.3v127.6h33.9
			c0.1,1.1,0.2,2.4,0.3,4c0.1,1.5,0.2,3.2,0.3,4.9c0.1,1.7,0.1,3.5,0.1,5.2c0,1.7,0,3.3,0,4.7L134.9,470.1L134.9,470.1z"/>
		<path fill="#FFFFFF" d="M158.9,436.8c0.2-17.7,0.5-35.5,0.8-53.3c0.3-17.8,0.8-36.2,1.5-55h17.2v108.3H158.9z"/>
		<path fill="#FFFFFF" d="M183.5,504.9l-2.2-17.3l28.9,1.8c2.7-0.2,5.1-0.7,7.3-1.5c1.8-0.6,3.5-1.6,5.1-3c1.6-1.4,2.5-3.3,2.7-5.7
			c0.2-2.4,0.3-4.6,0.3-6.5c-0.1-1.9-0.1-3.6-0.1-4.9c-0.1-1.6-0.2-3-0.2-4.4c-0.1-1.8-0.5-3.5-1.1-4.9c-0.6-1.2-1.4-2.3-2.5-3.4
			c-1-1-2.6-1.5-4.6-1.5c-2.1,0-4.1,0-6.1-0.1s-3.8-0.2-5.4-0.5c-1.9-0.1-3.7-0.3-5.3-0.5c-3.2-0.7-5.9-2-8.2-3.8
			c-2.1-1.6-3.9-3.8-5.6-6.6c-1.7-2.8-2.4-6.6-2.2-11.4c0.1-4.7,0.2-9.2,0.3-13.5c0.1-4.2,0-8-0.1-11.3c-0.1-3.9-0.2-7.5-0.4-10.7
			c-0.1-3.2,0.3-6,1.3-8.5c0.8-2.1,2.2-4,4.2-5.8c1.9-1.8,5-2.8,9.1-2.9c4-0.1,8.3-0.2,12.8-0.4c4.5-0.1,8.8-0.3,12.6-0.5
			c4.5-0.2,9-0.5,13.5-0.7l0.4,21.1l-26.6-0.9c-2.1,0.2-3.8,0.8-5.3,1.6c-1.3,0.7-2.5,1.8-3.6,3.3c-1.1,1.5-1.6,3.5-1.6,6
			c-0.1,2.5-0.2,5-0.2,7.5c0,2.4-0.1,4.6-0.2,6.5c-0.1,2.2-0.2,4.2-0.2,6.2c-0.1,1.6,0.1,3,0.5,4.4c0.5,1.1,1.3,2.1,2.4,3.1
			c1.1,1,2.7,1.6,4.9,1.8c2.5,0.2,5,0.4,7.4,0.5c2.4,0.1,4.4,0.1,6.1,0.1c2.1,0,4-0.1,5.8-0.2c2.3-0.1,4.4,0.4,6.4,1.6
			c1.7,1,3.2,2.7,4.5,5.1c1.3,2.4,2,6.1,2,11.1s0,9.6-0.1,13.9c-0.1,4.3-0.2,8.1-0.3,11.4c-0.1,3.9-0.2,7.4-0.2,10.5
			c-0.2,2.4-1,4.6-2.4,6.5c-1.1,1.7-2.7,3.2-4.8,4.5c-2.1,1.3-5.1,2.1-9,2.2L183.5,504.9z"/>
		<path fill="#FFFFFF" d="M219.3,370.5c-0.1-0.8-0.2-2.1-0.3-3.8c-0.1-1.7-0.3-3.5-0.4-5.4c-0.1-1.9-0.2-3.8-0.3-5.5
			c-0.1-1.8-0.1-3.1,0-3.9l63.4-3.6c0.2,1.7,0.5,3.3,0.7,4.9c0.2,1.3,0.4,2.7,0.7,4.2c0.2,1.5,0.4,2.8,0.5,3.9l0.2,2.4l-26.7,2
			c1.4,19,3.1,37.8,5.2,56.3c2.1,18.6,3.8,36.9,5.1,54.9l-17.8,1.3l-8-109.2L219.3,370.5z"/>
		<path fill="#FFFFFF" d="M321.8,433.5c0,3.2-0.5,6.2-1.4,9c-0.9,2.8-2.1,5.4-3.6,7.8c-1.5,2.4-3.2,4.5-5.1,6.5
			c-1.9,1.9-4,3.6-6.1,5.1c1.2,3.9,2.6,8.1,4.1,12.5c1.5,4.5,3,9,4.5,13.6c1.5,4.6,3.1,9.2,4.6,13.8c1.5,4.6,3,9,4.3,13.2
			c-0.5,0.6-1.2,1.2-2.4,1.7c-1.1,0.6-2.4,1.1-3.7,1.6c-1.4,0.5-2.7,1-3.9,1.5c-1.2,0.5-2.2,0.9-2.7,1.2l-20.9-56.9v53.9h-14.1
			c0-5-0.1-11.6-0.4-19.7c-0.3-8.1-0.6-16.9-0.9-26.4c-0.3-9.5-0.7-19.4-1.1-29.6c-0.4-10.2-0.7-20.1-1-29.5
			c-0.3-9.4-0.5-18.1-0.6-26.1c-0.1-7.9-0.1-14.3,0.2-19.2c1.7-0.1,3.9-0.2,6.5-0.3c2.6-0.1,5.3-0.1,8.2-0.2
			c2.8-0.1,5.6-0.1,8.4-0.1c2.8,0,5.1,0,7.1,0c2,0,4.2,0.5,6.6,1.4c2.3,0.9,4.5,2.3,6.6,4c2,1.7,3.7,3.9,5.1,6.5
			c1.4,2.6,2,5.5,2,8.7L321.8,433.5L321.8,433.5z"/>
		<path fill="#FFFFFF" d="M334.7,361.5c1.9,0.1,4.2,0.3,6.9,0.5c2.7,0.2,5.3,0.4,8,0.6c2.7,0.2,5.2,0.5,7.7,0.8
			c2.4,0.3,4.5,0.6,6.1,0.8l3.2,127.2l-13.2-1c-0.1-2.9-0.2-6.6-0.3-10.9c-0.1-4.3-0.3-8.7-0.4-13.3c-0.1-4.5-0.3-8.8-0.5-13
			c-0.2-4.1-0.5-7.5-0.9-9.9l-13-3.4c-2,6.8-3.5,14.4-4.7,22.7c-1.2,8.4-2.7,17-4.5,25.8l-13.2-1L334.7,361.5z"/>
		<path fill="#FFFFFF" d="M349.2,358.8c0-0.9,0-2.3,0-4.2c0-1.9,0-3.9,0-6c0-2.1,0-4.2,0.1-6.1c0.1-1.9,0.1-3.4,0.3-4.3l61.8,1.2
			c0.1,1.9,0.2,3.7,0.4,5.4c0.1,1.5,0.2,3,0.4,4.7c0.1,1.7,0.2,3.1,0.2,4.3v2.6h-26c0,20.9,0.4,41.5,1.1,62
			c0.7,20.5,1.1,40.6,1.1,60.4H371v-120H349.2z"/>
		<path fill="#FFFFFF" d="M393,493.8c0.1-20.9,0.3-41.8,0.5-62.7c0.2-21,0.5-42.6,0.9-64.7h11v127.5H393z"/>
		<path fill="#FFFFFF" d="M408.2,375.8c0.1-3.3,0.7-6.2,1.8-8.7c1-2.2,2.5-4.2,4.5-6.1c2.1-1.9,5-2.9,8.9-3c3.9-0.1,7.5-0.2,11-0.2
			c3.5,0,6.5,0.1,9.2,0.2c3.2,0.1,6,0.2,8.5,0.4c2.9,0.5,5.5,1.4,7.8,2.7c1.9,1.2,3.7,3,5.4,5.4c1.6,2.4,2.5,5.6,2.5,9.7
			c0,2.1,0,5,0,8.7s0,8.1-0.1,12.9c-0.1,4.9-0.1,10-0.2,15.5c-0.1,5.5-0.1,10.9-0.1,16.2c-0.1,12.6-0.2,26.3-0.4,40.9
			c0,1.9-0.3,3.8-1,5.6c-0.7,1.8-1.6,3.5-2.7,4.9c-1.2,1.5-2.6,2.6-4.2,3.5c-1.6,0.9-3.4,1.4-5.4,1.4c-2.4,0.1-5.4,0.2-8.9,0.1
			c-3.5-0.1-7-0.2-10.4-0.3c-4-0.1-8.1-0.2-12.2-0.2c-5.8-1-9.7-3.4-11.7-7.2c-2-3.8-2.9-8.5-2.6-14.1L408.2,375.8z"/>
		<path fill="#FFFFFF" d="M475,493.3l-1.2-147.9l12.6,0.8l18.5,96.7l1.3-100.5l13.2,2.5l-1.9,150l-13.7-0.8l-17.2-88.2l2,87.8
			L475,493.3z"/>
		<path fill="#FFFFFF" d="M524.6,505l-3.1-19.5l36.3,1.5c3.3-0.3,6.4-0.9,9.1-1.8c2.3-0.7,4.4-1.9,6.3-3.5s3.1-3.8,3.3-6.5
			c0.3-2.7,0.3-5.2,0.2-7.4c-0.1-2.2-0.2-4-0.2-5.6c-0.2-1.8-0.3-3.4-0.3-4.9c-0.2-2.1-0.7-3.9-1.5-5.5c-0.8-1.4-1.8-2.6-3.1-3.8
			c-1.3-1.1-3.3-1.7-5.8-1.6c-2.6,0-5.1,0.1-7.6,0c-2.5,0-4.8-0.2-6.7-0.4c-2.4-0.1-4.7-0.3-6.6-0.5c-4-0.8-7.4-2.1-10.3-4.1
			c-2.6-1.7-5-4.2-7.2-7.4c-2.2-3.2-3.2-7.5-3-12.8c0.1-5.3,0.1-10.4,0.1-15.2c0-4.8-0.1-9-0.3-12.7c-0.2-4.4-0.4-8.4-0.7-12.1
			c-0.2-3.6,0.3-6.8,1.4-9.7c1-2.3,2.7-4.6,5.1-6.7c2.4-2.1,6.2-3.3,11.4-3.5c5-0.2,10.4-0.4,16.1-0.7c5.7-0.2,11-0.5,15.8-0.9
			c5.6-0.4,11.2-0.7,16.9-1.1l0.9,23.8l-33.3-0.5c-2.6,0.3-4.8,1-6.6,2c-1.7,0.9-3.2,2.1-4.5,3.8c-1.3,1.7-2,3.9-1.9,6.8
			c-0.1,2.9-0.1,5.7-0.1,8.4c0,2.7,0,5.2-0.1,7.4c-0.1,2.5-0.1,4.8-0.1,7c-0.1,1.8,0.1,3.4,0.8,4.9c0.6,1.2,1.6,2.4,3,3.4
			c1.4,1.1,3.5,1.7,6.2,2c3.2,0.2,6.3,0.3,9.2,0.4c3,0,5.5,0,7.6,0c2.6,0,5-0.2,7.3-0.3c2.9-0.2,5.6,0.4,8,1.7
			c2.1,1.1,4.1,3,5.8,5.7c1.7,2.7,2.6,6.9,2.7,12.5c0.1,5.6,0.1,10.9,0.1,15.7c0,4.9,0,9.1-0.1,12.9c-0.1,4.4-0.1,8.4,0,11.9
			c-0.3,2.7-1.2,5.2-2.8,7.4c-1.3,1.9-3.3,3.7-6,5.2c-2.6,1.6-6.4,2.4-11.3,2.7L524.6,505z"/>
	</g>
</g>
<g id="Layer_2" display="none">
	<g display="inline">
		<g>
			<path d="M-118.1,363.3c4.6-0.3,8.7,0.1,12.4,1.3c3.1,1,6.1,2.7,8.9,5.1c2.8,2.4,4.7,6,5.4,10.8c0.6,4.9,1.1,9.6,1.3,13.9
				c0.2,4.3,0.3,8.2,0.3,11.5c0,3.9-0.1,7.5-0.3,10.8c-0.8,2.3-2.1,4.4-3.7,6.2c-1.5,1.5-3.5,3-6.1,4.5c-2.6,1.5-5.9,2.5-9.9,2.9
				c-4.1,0.4-13.5,3.1-15,3.1l20.7,2.7c3.8,0.4,7.2,1.3,10.2,2.6c2.6,1.1,5,2.7,7.2,4.6c2.1,2,3.1,4.7,2.9,8.2
				c-0.2,3.5-0.4,7.6-0.6,12.5c-0.2,4.8-0.4,9.4-0.7,13.9c-0.4,5.2-0.8,10.5-1,15.9c-0.3,1.5-1,2.8-2.1,4.1c-1,1.1-2.6,2.2-4.7,3.2
				c-2.1,1-5.1,1.7-8.9,1.9c-4,0.4-8.8,0.8-14.6,1.2c-5.8,0.4-11.5,0.9-17.1,1.3c-6.5,0.5-13.3,1-20.3,1.6
				c-3.1-25.8-5.2-50.2-6.3-73.1c-1.1-22.9-1.5-45.3-1.3-67.2c7.1-1.2,14.4-2.1,21.8-2.7C-132,363.6-124.9,363.3-118.1,363.3z"/>
			<path d="M-79.1,502.6c-0.5-24-1-48.2-1.4-72.3s-0.8-49.1-0.9-74.7l14.7-0.4l4.3,147L-79.1,502.6z"/>
			<path d="M-54.5,507.8c-2-21.1-3.5-42.6-4.6-64.5c-1.1-21.9-2.1-44.3-3.2-67.2l20.4-1.6l9.1,114.6l45.1-3.6c0.2,1,0.5,2.2,0.7,3.5
				c0.3,1.4,0.5,2.8,0.7,4.4c0.2,1.6,0.4,3.1,0.5,4.7c0.1,1.6,0.2,3,0.3,4.2L-54.5,507.8z"/>
			<path d="M-27.8,484.4c-0.2-23.5-0.1-47.4,0.4-71.8c0.5-24.3,1-49.2,1.6-74.7h15.3v127.6h33.9c0.1,1.1,0.2,2.4,0.3,4
				c0.1,1.5,0.2,3.2,0.3,4.9c0.1,1.7,0.1,3.5,0.1,5.2c0,1.7,0,3.3,0,4.7H-27.8z"/>
			<path d="M-3.7,451.1c0.2-17.7,0.5-35.5,0.8-53.3c0.3-17.8,0.8-36.2,1.5-55h17.2v108.3H-3.7z"/>
			<path d="M20.9,519.2l-2.2-17.3l28.9,1.8c2.7-0.2,5.1-0.7,7.3-1.5c1.8-0.6,3.5-1.6,5.1-3c1.6-1.4,2.5-3.3,2.7-5.7
				c0.2-2.4,0.3-4.6,0.3-6.6c-0.1-1.9-0.1-3.6-0.1-4.9c-0.1-1.6-0.2-3-0.2-4.4c-0.1-1.8-0.5-3.5-1.1-4.9c-0.6-1.2-1.4-2.3-2.5-3.4
				c-1-1-2.6-1.5-4.6-1.5c-2.1,0-4.1,0-6.1-0.1c-2-0.1-3.8-0.2-5.4-0.5c-1.9-0.1-3.7-0.3-5.3-0.5c-3.2-0.7-5.9-2-8.2-3.8
				c-2.1-1.6-3.9-3.8-5.6-6.6c-1.7-2.8-2.4-6.6-2.2-11.4c0.1-4.7,0.2-9.2,0.3-13.5c0.1-4.2,0-8-0.1-11.3c-0.1-3.9-0.2-7.5-0.4-10.7
				c-0.1-3.2,0.3-6,1.3-8.5c0.8-2.1,2.2-4,4.2-5.8c1.9-1.8,5-2.8,9.1-2.9c4-0.1,8.3-0.2,12.8-0.4c4.5-0.1,8.8-0.3,12.6-0.5
				c4.5-0.2,9-0.5,13.5-0.7l0.4,21.1l-26.6-0.9c-2.1,0.2-3.8,0.8-5.3,1.6c-1.3,0.7-2.5,1.8-3.6,3.3c-1.1,1.5-1.6,3.5-1.6,6
				c-0.1,2.5-0.2,5-0.2,7.5c0,2.4-0.1,4.6-0.2,6.6c-0.1,2.2-0.2,4.2-0.2,6.2c-0.1,1.6,0.1,3,0.5,4.4c0.5,1.1,1.3,2.1,2.4,3.1
				c1.1,1,2.7,1.6,4.9,1.8c2.5,0.2,5,0.4,7.4,0.5c2.4,0.1,4.4,0.1,6.1,0.1c2.1,0,4-0.1,5.8-0.2c2.3-0.1,4.4,0.4,6.4,1.6
				c1.7,1,3.2,2.7,4.5,5.1c1.3,2.4,2,6.1,2,11.1c0,5,0,9.6-0.1,13.9c-0.1,4.3-0.2,8.1-0.3,11.4c-0.1,3.9-0.2,7.4-0.2,10.6
				c-0.2,2.4-1,4.6-2.4,6.5c-1.1,1.7-2.7,3.2-4.8,4.5c-2.1,1.3-5.1,2.1-9,2.2L20.9,519.2z"/>
			<path d="M56.7,384.8c-0.1-0.8-0.2-2.1-0.3-3.8c-0.1-1.7-0.3-3.5-0.4-5.4c-0.1-1.9-0.2-3.8-0.3-5.5s-0.1-3.1,0-3.9l63.4-3.6
				c0.2,1.7,0.5,3.3,0.7,4.9c0.2,1.3,0.4,2.7,0.7,4.2c0.2,1.5,0.4,2.8,0.5,3.9l0.2,2.4l-26.7,2c1.4,19,3.1,37.8,5.2,56.3
				c2.1,18.6,3.8,36.9,5.1,54.9L87,492.4l-8-109.2L56.7,384.8z"/>
			<path d="M159.2,447.8c0,3.2-0.5,6.2-1.4,9c-0.9,2.8-2.1,5.4-3.6,7.8c-1.5,2.4-3.2,4.5-5.1,6.5c-1.9,1.9-4,3.6-6.1,5.1
				c1.2,3.9,2.6,8.1,4.1,12.5c1.5,4.5,3,9,4.5,13.6s3.1,9.2,4.6,13.8c1.5,4.6,3,9,4.3,13.2c-0.5,0.6-1.2,1.2-2.4,1.7
				c-1.1,0.6-2.4,1.1-3.7,1.6c-1.4,0.5-2.7,1-3.9,1.5c-1.2,0.5-2.2,0.9-2.7,1.2l-20.9-56.9v53.9h-14.1c0-5-0.1-11.6-0.4-19.7
				c-0.3-8.1-0.6-16.9-0.9-26.4c-0.3-9.5-0.7-19.4-1.1-29.6c-0.4-10.2-0.7-20.1-1-29.5c-0.3-9.4-0.5-18.1-0.6-26.1
				c-0.1-7.9-0.1-14.3,0.2-19.2c1.7-0.1,3.9-0.3,6.5-0.3c2.6-0.1,5.3-0.1,8.2-0.2c2.8-0.1,5.6-0.1,8.4-0.1c2.8,0,5.1,0,7.1,0
				c2,0,4.2,0.5,6.6,1.4c2.3,0.9,4.5,2.3,6.6,4c2,1.7,3.7,3.9,5.1,6.5c1.4,2.6,2,5.5,2,8.7L159.2,447.8L159.2,447.8z"/>
			<path d="M172,375.8c1.9,0.1,4.2,0.3,6.9,0.5c2.7,0.2,5.3,0.4,8,0.6c2.7,0.2,5.2,0.5,7.7,0.8c2.4,0.3,4.5,0.6,6.1,0.8l3.2,127.2
				l-13.2-1c-0.1-2.9-0.2-6.6-0.3-10.9c-0.1-4.3-0.3-8.7-0.4-13.3c-0.1-4.5-0.3-8.8-0.5-13c-0.2-4.1-0.5-7.5-0.9-9.9l-13-3.4
				c-2,6.8-3.5,14.4-4.7,22.7c-1.2,8.4-2.7,17-4.5,25.8l-13.2-1L172,375.8z"/>
			<path d="M186.5,373.1c0-0.9,0-2.3,0-4.2c0-1.9,0-3.9,0-6s0-4.2,0.1-6.1c0.1-1.9,0.1-3.4,0.3-4.3l61.8,1.2
				c0.1,1.9,0.2,3.7,0.4,5.4c0.1,1.5,0.2,3,0.4,4.7c0.1,1.7,0.2,3.1,0.2,4.3v2.6h-26c0,20.9,0.4,41.5,1.1,62
				c0.7,20.5,1.1,40.6,1.1,60.4h-17.3v-120H186.5z"/>
			<path d="M230.4,508.1c0.1-20.9,0.3-41.8,0.5-62.7c0.2-21,0.5-42.6,0.9-64.7h11v127.5H230.4z"/>
			<path d="M245.5,390.1c0.1-3.3,0.7-6.2,1.8-8.7c1-2.2,2.5-4.2,4.5-6.1c2.1-1.9,5-2.9,8.9-3c3.9-0.1,7.5-0.2,11-0.2
				c3.5,0,6.5,0.1,9.2,0.2c3.2,0.1,6,0.2,8.5,0.4c2.9,0.5,5.5,1.4,7.8,2.7c1.9,1.2,3.7,3,5.4,5.4c1.6,2.4,2.5,5.6,2.5,9.7
				c0,2.1,0,5,0,8.7c0,3.8,0,8.1-0.1,12.9c-0.1,4.9-0.1,10-0.2,15.5c-0.1,5.5-0.1,10.9-0.1,16.2c-0.1,12.6-0.2,26.3-0.4,40.9
				c0,1.9-0.3,3.8-1,5.6c-0.7,1.8-1.6,3.5-2.7,4.9c-1.2,1.5-2.5,2.6-4.2,3.5c-1.6,0.9-3.4,1.4-5.4,1.4c-2.4,0.1-5.4,0.2-8.9,0.1
				c-3.5-0.1-7-0.2-10.4-0.3c-4-0.1-8.1-0.2-12.2-0.2c-5.8-1-9.7-3.4-11.7-7.2c-2-3.8-2.9-8.5-2.6-14.1L245.5,390.1z"/>
			<path d="M312.3,507.6l-1.2-147.9l12.6,0.8l18.5,96.7l1.3-100.5l13.2,2.5l-1.9,150l-13.7-0.8L324,420.2l2,87.8L312.3,507.6z"/>
			<path d="M362,519.3l-3.1-19.5l36.3,1.5c3.3-0.3,6.4-0.9,9.1-1.8c2.3-0.7,4.4-1.9,6.3-3.5c2-1.6,3.1-3.8,3.3-6.5
				c0.3-2.7,0.3-5.2,0.2-7.4c-0.1-2.2-0.2-4-0.2-5.6c-0.2-1.8-0.3-3.4-0.3-4.9c-0.2-2.1-0.7-3.9-1.5-5.5c-0.8-1.4-1.8-2.6-3.1-3.8
				c-1.3-1.1-3.3-1.7-5.8-1.6c-2.6,0-5.1,0.1-7.6,0s-4.8-0.2-6.7-0.4c-2.4-0.1-4.7-0.3-6.6-0.5c-4-0.8-7.4-2.1-10.3-4.1
				c-2.6-1.7-5-4.2-7.2-7.4c-2.2-3.2-3.2-7.5-3-12.8c0.1-5.3,0.1-10.4,0.1-15.2c0-4.8-0.1-9-0.3-12.7c-0.2-4.4-0.4-8.4-0.7-12.1
				c-0.2-3.6,0.3-6.8,1.4-9.7c1-2.3,2.7-4.6,5.1-6.7c2.4-2.1,6.2-3.3,11.4-3.5c5-0.2,10.4-0.4,16.1-0.7c5.7-0.2,11-0.5,15.8-0.9
				c5.6-0.4,11.2-0.7,16.9-1.1l0.9,23.8l-33.3-0.5c-2.6,0.3-4.8,1-6.6,2c-1.7,0.9-3.2,2.1-4.5,3.8c-1.3,1.7-2,3.9-1.9,6.8
				c-0.1,2.9-0.1,5.7-0.1,8.4c0,2.7,0,5.2-0.1,7.4c-0.1,2.5-0.1,4.8-0.1,7c-0.1,1.8,0.1,3.4,0.8,4.9c0.6,1.2,1.6,2.4,3,3.4
				c1.4,1.1,3.5,1.7,6.2,2c3.2,0.2,6.3,0.3,9.2,0.4c3,0,5.5,0,7.6,0c2.6,0,5-0.2,7.3-0.3c2.9-0.2,5.6,0.4,8,1.7
				c2.1,1.1,4.1,3,5.8,5.7c1.7,2.7,2.6,6.9,2.7,12.5c0.1,5.6,0.1,10.9,0.1,15.7c0,4.9,0,9.1-0.1,12.9c-0.1,4.4-0.1,8.4,0,11.9
				c-0.3,2.7-1.2,5.2-2.8,7.5c-1.3,1.9-3.3,3.7-6,5.2c-2.6,1.6-6.4,2.4-11.3,2.7L362,519.3z"/>
		</g>
		<g>
			<path d="M447.9,500.7l-9.5-0.5c-0.5-0.1-1,0-1.5,0.3c-0.4,0.2-0.8,0.5-1.2,1c-0.4,0.5-0.7,1.2-1,2.2c-0.2,0.6-0.3,1.6-0.6,2.8
				c-0.2,1.3-0.5,2.7-0.8,4.2s-0.5,3.1-0.8,4.8c-0.3,1.6-0.5,3.2-0.7,4.5c-0.2,1.4-0.3,2.6-0.4,3.5c-0.1,1-0.1,1.6,0,1.8
				c0.1,0.3,0.3,0.6,0.4,0.9c0.1,0.3,0.3,0.5,0.5,0.7s0.6,0.4,1,0.6c0.4,0.2,1,0.3,1.6,0.4c0.7,0.1,1.5,0.2,2.5,0.3
				c1,0.1,2,0.2,2.9,0.3c1.1,0.1,2.2,0.1,3.4,0.2l-0.5,4.8l-10.1-0.8c-5.2-0.4-7.6-3.2-7.2-8.2l5.4-26.9c0.1-0.6,0.4-1.1,0.9-1.5
				c0.4-0.4,0.9-0.7,1.6-1.1c0.7-0.3,1.6-0.6,2.7-0.6c1.1-0.1,2.4-0.1,3.7-0.1c1.3,0,2.6,0,3.8,0c1.2,0,2.3,0,3.2,0.1
				c0.9,0,1.6,0.1,2,0.2L447.9,500.7z"/>
			<path d="M449.2,500.4c0.2-1,0.6-1.9,1-2.6c0.4-0.6,1-1.2,1.7-1.6c0.7-0.5,1.7-0.6,2.9-0.4c1.2,0.2,2.4,0.4,3.4,0.5
				c1.1,0.2,2,0.4,2.9,0.6c1,0.2,1.9,0.4,2.6,0.6c0.9,0.3,1.6,0.7,2.3,1.3c0.5,0.5,1,1.1,1.4,2s0.5,1.9,0.2,3.2
				c-0.1,0.6-0.3,1.6-0.5,2.7c-0.2,1.2-0.4,2.5-0.7,4c-0.3,1.5-0.6,3.1-0.9,4.8c-0.3,1.7-0.6,3.4-0.9,5c-0.7,3.9-1.5,8.2-2.4,12.7
				c-0.1,0.6-0.3,1.2-0.6,1.7c-0.3,0.5-0.7,1-1.1,1.4c-0.4,0.4-0.9,0.7-1.5,0.9c-0.6,0.2-1.1,0.2-1.7,0.1c-0.8-0.1-1.7-0.2-2.8-0.5
				c-1.1-0.2-2.2-0.4-3.2-0.7c-1.2-0.3-2.5-0.5-3.8-0.7c-1.8-0.6-2.8-1.6-3.3-2.9c-0.4-1.3-0.4-2.8-0.1-4.5L449.2,500.4z"/>
			<path d="M462.7,538l6.5-39.2l5.2,0.2l6.4,20.6l10.3-17.7l4.6,0.8l-5.5,40.5l-5.1-1.2l4.1-26l-8.2,11.5l-3.7-0.6l-4.5-15.4
				l-5.5,27.4L462.7,538z"/>
		</g>
		<g>
			<path d="M-235.3,501.3l8.3,29.2l-0.4-30.6l5.8-1l8.6,28.5l-3.4-30.5c1-0.2,1.9-0.3,2.7-0.5c0.7-0.1,1.3-0.2,1.9-0.3
				c0.6-0.1,1-0.2,1.1-0.2c0,0,0.1,0.6,0.3,1.8c0.1,1.2,0.3,2.7,0.4,4.7c0.2,1.9,0.3,4.2,0.5,6.6c0.2,2.5,0.3,5,0.5,7.6
				c0.4,6.1,0.9,13,1.4,20.7l-7.4,1.1l-7-23.5l0.7,24.8l-8,1.4l-10.9-38.4L-235.3,501.3z"/>
			<path d="M-205.9,495.7l8.3,29.2l-0.4-30.6l5.8-1l8.6,28.5l-3.4-30.5c1-0.2,1.9-0.3,2.7-0.5c0.7-0.1,1.3-0.2,1.9-0.3
				c0.6-0.1,1-0.2,1.1-0.2c0,0,0.1,0.6,0.3,1.8c0.1,1.2,0.3,2.8,0.4,4.7c0.2,1.9,0.3,4.2,0.5,6.6c0.2,2.5,0.3,5,0.5,7.6
				c0.4,6.1,0.9,13,1.4,20.7l-7.4,1.1l-7-23.5l0.8,24.8l-8,1.4l-10.9-38.4L-205.9,495.7z"/>
			<path d="M-176.6,490l8.3,29.2l-0.4-30.6l5.8-1l8.6,28.5l-3.4-30.5c1-0.2,1.9-0.3,2.7-0.5c0.7-0.1,1.3-0.2,1.9-0.3
				c0.6-0.1,1-0.2,1.1-0.2c0,0,0.1,0.6,0.3,1.8c0.1,1.2,0.3,2.8,0.4,4.7c0.2,1.9,0.3,4.2,0.5,6.6c0.2,2.5,0.3,5,0.5,7.6
				c0.4,6.1,0.9,13,1.4,20.7l-7.4,1.1l-7-23.5l0.7,24.8l-8,1.4l-10.9-38.4L-176.6,490z"/>
		</g>
		<g>
			<circle cx="-145.3" cy="512.5" r="10"/>
		</g>
		<g>
			<circle cx="421.5" cy="519.4" r="10"/>
		</g>
	</g>
</g>
<g id="Layer_3" display="none">
	<path display="inline" d="M-89.8,412.2c0,0,0,0.2,0,0.4c0.1,2.3,0.1,12.9-5.5,18.1c0,0,12.1,9.7,11.6,20.4
		c-0.6,0-31.9,3.6-33.6,2.9c-1.7-0.6-14.6-19-13.9-20.5s7.9-9.4,10.9-10.7"/>
</g>
</svg>
