<?xml version="1.0" encoding="utf-8"?>
<!-- Generator: Adobe Illustrator 19.0.1, SVG Export Plug-In . SVG Version: 6.00 Build 0)  -->
<svg version="1.1" id="Layer_1" xmlns="http://www.w3.org/2000/svg" xmlns:xlink="http://www.w3.org/1999/xlink" x="0px" y="0px"
	 viewBox="-784 268 610 266" style="enable-background:new -784 268 610 266;" xml:space="preserve">
<style type="text/css">
	.st0{display:none;fill:#1318F4;stroke:#000000;stroke-miterlimit:10;}
	.st1{fill:#FFFFFF;}
</style>
<rect x="-784" y="268" class="st0" width="610" height="266"/>
<g>
	<polygon class="st1" points="-499.4,392.1 -500.4,395.8 -503,405 -495.6,405 -498.4,395.8 	"/>
	<path class="st1" d="M-559,360v82h160v-82H-559z M-492.4,416l-1.6-6h-10.5l-1.5,6h-7.8l10.4-30h8.4l10.4,30H-492.4z M-467,401
		c-1-0.5-1.7-0.7-2.7-0.7c-2.1,0-3.3,0.8-5.3,2.3V416h-7v-23h6.4l0.3,4c0.8-1.7,2.2-3,4.3-3.6c0.7-0.2,1.4-0.4,2.2-0.4s0.8,0,1.8,0
		C-467,393-467,401-467,401z M-453.5,415.8c-0.8,0.1-1.7,0.2-2.7,0.2s-1.9-0.1-2.7-0.4c-0.8-0.3-1.3-0.8-1.8-1.3
		c-1-1.1-1.3-3-1.3-5.5V398h-3v-3.7c2-0.5,2.7-0.9,3.1-1.3c0.4-0.3,0.6-0.7,0.8-0.9c0.1-0.3,0.3-0.6,0.4-0.9c0.1-0.3,0.3-0.6,0.4-1
		c0.1-0.3,0.3-0.8,0.4-1.2s0.3-0.1,0.4-1.1h4.5v5h6v5h-6v8.1c0,2,0.1,3.3,0.5,3.8c0.2,0.3,0.4,0.5,0.8,0.6s0.7,0.1,1,0.1
		c0.3,0,0.7,0,1-0.1c0.3,0,0.6-0.1,0.9-0.2c0.7-0.2,1.2-0.4,1.5-0.6l0.9,4C-449.4,414.7-451.1,415.4-453.5,415.8z"/>
</g>
<rect x="-784" y="268" class="st1" width="252" height="266"/>
<rect x="-559" y="268" class="st1" width="160" height="105"/>
<rect x="-559" y="421" class="st1" width="160" height="113"/>
<rect x="-424" y="268" class="st1" width="250" height="266"/>
</svg>
