<?xml version="1.0" encoding="utf-8"?>
<!-- Generator: Adobe Illustrator 19.0.1, SVG Export Plug-In . SVG Version: 6.00 Build 0)  -->
<svg version="1.1" id="Layer_1" xmlns="http://www.w3.org/2000/svg" xmlns:xlink="http://www.w3.org/1999/xlink" x="0px" y="0px"
	 viewBox="-847.9 248.1 737.8 305.8" style="enable-background:new -847.9 248.1 737.8 305.8;" xml:space="preserve">
<style type="text/css">
	.st0{fill:#FFFFFF;}
</style>
<g>
	<path class="st0" d="M-449.8,418.1c0,1.8,0.8,2.9,2.3,3.5c0.6,0.2,1.3,0.3,2.1,0.3c0.8,0,1.6-0.1,2.2-0.2c0.6-0.1,1.2-0.3,1.6-0.5
		c1-0.5,1.4-1.3,1.4-2.4c0-1-0.2-1.6-0.6-1.9c-0.8-0.6-2-1-3.6-1h-4.7C-449.6,416.6-449.8,417.3-449.8,418.1z"/>
	<path class="st0" d="M-471.3,398.4c-2,0-3.3,1.1-3.7,3.4c-0.1,0.8-0.2,1.6-0.2,2.6c0,4.4,1.3,6.5,3.8,6.5c1.4,0,2.4-0.5,3-1.5
		c0.6-1,0.8-2.5,0.8-4.7C-467.6,400.6-468.8,398.4-471.3,398.4z"/>
	<path class="st0" d="M-512.4,403c-1.9,0-2.6,0-3.6,0.1v7.7c1,0.3,1.8,0.4,3.6,0.4c1.8,0,3.2-0.3,4-1c0.8-0.7,1.2-1.8,1.2-3.3
		C-507.1,404.3-508.9,403-512.4,403z"/>
	<path class="st0" d="M-510.8,398.2c0.6-0.1,1.1-0.4,1.5-0.7c0.8-0.7,1.2-1.7,1.2-3.1s-0.4-2.3-1.3-2.8c-0.9-0.5-2.2-0.8-3.7-0.8
		c-1.5,0-1.9,0.1-2.9,0.3v7.1c1,0.1,1.3,0.2,2.5,0.2C-512.4,398.4-511.4,398.3-510.8,398.2z"/>
	<path class="st0" d="M-559,360v82h160v-82H-559z M-500,410.5c-0.4,1.1-1.1,2.1-2,2.9c-1,0.8-2.2,1.4-3.8,1.9
		c-1.6,0.5-3.5,0.7-5.8,0.7c-2.3,0-4.9,0-7.7,0h-3.7v-30h3.5h7.1c7.6,0,11.4,2.5,11.4,7.6c0,2.5-0.8,4.4-2.5,5.7
		c-0.6,0.4-1.2,0.7-2,0.9c1.8,0.2,3.2,0.9,4.3,2.1c1.2,1.2,1.7,2.6,1.7,4.2C-499.4,408-499.6,409.4-500,410.5z M-488,416h-7v-32h7
		V416z M-463.3,413.2c-2.1,1.9-4.8,2.8-8.2,2.8c-5.1,0-8.4-2-10.1-5.9c-0.4-0.9-0.6-1.8-0.8-2.7c-0.2-0.9-0.2-2.1-0.2-3.5
		s0.3-2.8,0.9-4.2c0.6-1.4,1.4-2.5,2.4-3.5c2.1-1.9,4.8-2.8,8.2-2.8c5.1,0,8.4,2,10.1,5.9c0.7,1.6,1,3.4,1,5.6
		C-460,408.5-461.1,411.3-463.3,413.2z M-432,399h-3.8c0.1,0,0.2,1.2,0.2,2s-0.2,1.6-0.6,2.5s-1,1.6-1.9,2.2
		c-1.8,1.3-4.4,1.9-7.9,1.9c-0.8,0-1.5,0-2.2-0.1c-0.5,0.5-0.7,1-0.7,1.7c0,0.7,0.2,1.2,0.6,1.4s1.2,0.4,2.2,0.4h4.4
		c3.2,0,5.6,0.6,7,1.9c1.2,1.1,1.8,2.6,1.8,4.6c0,2.7-1.3,4.8-3.9,6.4c-2.3,1.4-5.2,2-8.5,2c-5.9,0-9.6-1.3-11-3.9
		c-0.5-0.8-0.7-1.7-0.7-2.6c0-0.9,0.3-1.8,0.8-2.7c0.6-0.8,1.4-1.4,2.5-1.9c-1.2-0.7-1.8-1.8-1.8-3.4c0-1.5,0.6-2.7,1.9-3.8
		c0.5-0.4,1-0.7,1.7-1c-3-1.2-4.5-3.2-4.5-6c0-3.6,2-5.8,5.9-6.7c1.3-0.3,2.7-0.4,4.4-0.4c3.2,0,5.8,0.3,7.5,1.4
		c1.1-1.1,2.3-1.9,3.8-1.9h2.7v6H-432z"/>
	<path class="st0" d="M-445.9,397.2c-1.7,0-2.8,0.6-3.2,1.7c-0.2,0.4-0.3,1.1-0.3,1.9c0,0.8,0.3,1.5,0.8,2.1
		c0.6,0.6,1.4,0.9,2.5,0.9s1.9-0.2,2.3-0.5c0.8-0.6,1.1-1.5,1.1-2.7C-442.6,398.3-443.7,397.2-445.9,397.2z"/>
</g>
<rect x="-847.9" y="248.1" class="st0" width="312" height="305.8"/>
<rect x="-412.9" y="248.1" class="st0" width="302.8" height="305.8"/>
<rect x="-559" y="248.1" class="st0" width="160" height="124.5"/>
<rect x="-559" y="425.9" class="st0" width="160" height="128"/>
</svg>
