<?xml version="1.0" encoding="utf-8"?>
<!-- Generator: Adobe Illustrator 19.0.1, SVG Export Plug-In . SVG Version: 6.00 Build 0)  -->
<svg version="1.1" id="Layer_1" xmlns="http://www.w3.org/2000/svg" xmlns:xlink="http://www.w3.org/1999/xlink" x="0px" y="0px"
	 viewBox="0 0 160 82" style="enable-background:new 0 0 160 82;" xml:space="preserve">
<style type="text/css">
	.st0{fill:#FFFFFF;}
</style>
<g>
	<path class="st0" d="M109.2,58.1c0,1.8,0.8,2.9,2.3,3.5c0.6,0.2,1.3,0.3,2.1,0.3c0.8,0,1.6-0.1,2.2-0.2c0.6-0.1,1.2-0.3,1.6-0.5
		c1-0.5,1.4-1.3,1.4-2.4c0-1-0.2-1.6-0.6-1.9c-0.8-0.6-2-1-3.6-1h-4.7C109.4,56.6,109.2,57.3,109.2,58.1z"/>
	<path class="st0" d="M87.7,38.4c-2,0-3.3,1.1-3.7,3.4c-0.1,0.8-0.2,1.6-0.2,2.6c0,4.4,1.3,6.5,3.8,6.5c1.4,0,2.4-0.5,3-1.5
		c0.6-1,0.8-2.5,0.8-4.7C91.4,40.6,90.2,38.4,87.7,38.4z"/>
	<path class="st0" d="M46.6,43C44.7,43,44,43,43,43.1v7.7c1,0.3,1.8,0.4,3.6,0.4s3.2-0.3,4-1s1.2-1.8,1.2-3.3
		C51.9,44.3,50.1,43,46.6,43z"/>
	<path class="st0" d="M48.2,38.2c0.6-0.1,1.1-0.4,1.5-0.7c0.8-0.7,1.2-1.7,1.2-3.1c0-1.4-0.4-2.3-1.3-2.8c-0.9-0.5-2.2-0.8-3.7-0.8
		S44,30.9,43,31.1v7.1c1,0.1,1.3,0.2,2.5,0.2C46.6,38.4,47.6,38.3,48.2,38.2z"/>
	<path class="st0" d="M0,0v82h160V0H0z M59,50.5c-0.4,1.1-1.1,2.1-2,2.9c-1,0.8-2.2,1.4-3.8,1.9c-1.6,0.5-3.5,0.7-5.8,0.7
		s-4.9,0-7.7,0H36V26h3.5h7.1c7.6,0,11.4,2.5,11.4,7.6c0,2.5-0.8,4.4-2.5,5.7c-0.6,0.4-1.2,0.7-2,0.9c1.8,0.2,3.2,0.9,4.3,2.1
		c1.2,1.2,1.7,2.6,1.7,4.2C59.6,48,59.4,49.4,59,50.5z M71,56h-7V24h7V56z M95.7,53.2c-2.1,1.9-4.8,2.8-8.2,2.8
		c-5.1,0-8.4-2-10.1-5.9c-0.4-0.9-0.6-1.8-0.8-2.7s-0.2-2.1-0.2-3.5s0.3-2.8,0.9-4.2c0.6-1.4,1.4-2.5,2.4-3.5
		c2.1-1.9,4.8-2.8,8.2-2.8c5.1,0,8.4,2,10.1,5.9c0.7,1.6,1,3.4,1,5.6C99,48.5,97.9,51.3,95.7,53.2z M127,39h-3.8
		c0.1,0,0.2,1.2,0.2,2s-0.2,1.6-0.6,2.5c-0.4,0.9-1,1.6-1.9,2.2c-1.8,1.3-4.4,1.9-7.9,1.9c-0.8,0-1.5,0-2.2-0.1
		c-0.5,0.5-0.7,1-0.7,1.7c0,0.7,0.2,1.2,0.6,1.4c0.4,0.2,1.2,0.4,2.2,0.4h4.4c3.2,0,5.6,0.6,7,1.9c1.2,1.1,1.8,2.6,1.8,4.6
		c0,2.7-1.3,4.8-3.9,6.4c-2.3,1.4-5.2,2-8.5,2c-5.9,0-9.6-1.3-11-3.9c-0.5-0.8-0.7-1.7-0.7-2.6s0.3-1.8,0.8-2.7
		c0.6-0.8,1.4-1.4,2.5-1.9c-1.2-0.7-1.8-1.8-1.8-3.4c0-1.5,0.6-2.7,1.9-3.8c0.5-0.4,1-0.7,1.7-1c-3-1.2-4.5-3.2-4.5-6
		c0-3.6,2-5.8,5.9-6.7c1.3-0.3,2.7-0.4,4.4-0.4c3.2,0,5.8,0.3,7.5,1.4c1.1-1.1,2.3-1.9,3.8-1.9h2.7V39z"/>
	<path class="st0" d="M113.1,37.2c-1.7,0-2.8,0.6-3.2,1.7c-0.2,0.4-0.3,1.1-0.3,1.9s0.3,1.5,0.8,2.1c0.6,0.6,1.4,0.9,2.5,0.9
		c1.1,0,1.9-0.2,2.3-0.5c0.8-0.6,1.1-1.5,1.1-2.7C116.4,38.3,115.3,37.2,113.1,37.2z"/>
</g>
</svg>
