<?xml version="1.0" encoding="utf-8"?>
<!-- Generator: Adobe Illustrator 19.0.1, SVG Export Plug-In . SVG Version: 6.00 Build 0)  -->
<svg version="1.1" id="Layer_1" xmlns="http://www.w3.org/2000/svg" xmlns:xlink="http://www.w3.org/1999/xlink" x="0px" y="0px"
	 viewBox="0 0 333 89" style="enable-background:new 0 0 333 89;" xml:space="preserve">
<style type="text/css">
	.st0{fill:#FFFFFF;}
</style>
<g>
	<path class="st0" d="M199.3,41.3c-1.6,0-2.7,0.8-3.3,2.5c-0.2,0.6-0.4,1.2-0.4,2.2h6.5c0,0,0-0.6,0-0.8c0-1.2-0.2-2.1-0.6-2.8
		S200.4,41.3,199.3,41.3z"/>
	<path class="st0" d="M0,0v89h333V0H0z M89.2,56.9c-1.9,1.6-4.6,2.4-8,2.4c-3,0-5.7-0.4-8-1.3c-0.6-0.2-1.1-0.4-1.4-0.6l0.9-5.8
		c1.4,0.8,3.2,1.4,5.5,1.7c0.8,0.1,1.7,0.2,2.8,0.2c2.4,0,3.5-0.8,3.5-2.5c0-0.9-0.4-1.6-1.3-2.3c-0.5-0.4-1.7-1-3.5-1.8
		c-1.8-0.8-3.1-1.5-3.9-2.1c-0.8-0.6-1.6-1.2-2.2-1.9c-1.4-1.6-2.1-3.5-2.1-5.7c0-2.6,1-4.6,2.9-6c1.8-1.3,4.4-2,7.7-2
		c3.6,0,6.4,0.6,8.4,1.7l-1.2,5.6c-1-0.8-2.6-1.4-4.6-1.7c-0.7-0.1-1.5-0.2-2.5-0.2s-1.9,0.2-2.5,0.7c-0.7,0.5-1,1-1,1.6
		s0.1,1.1,0.3,1.4c0.2,0.4,0.5,0.7,0.9,1c0.7,0.6,1.9,1.2,3.5,1.9c1.6,0.7,2.9,1.3,3.9,1.9c1,0.6,1.9,1.2,2.6,1.9
		c1.4,1.5,2.2,3.3,2.2,5.4C92,53.2,91.1,55.3,89.2,56.9z M115,59h-4.4c-0.8,0-1.6,0.1-1.8-0.1c-0.4-0.3-0.8-0.8-0.8-1.7v-0.2
		c-1,1.5-3.6,2.2-6,2.2c-2.2,0-3.9-0.7-5.2-2c-1.3-1.3-1.9-3-1.9-5.1c0-1.3,0.4-2.5,1.1-3.4c0.7-1,1.6-1.6,2.5-2.1s1.8-0.7,2.6-0.9
		c0.8-0.2,1.6-0.3,2.4-0.4c1.3-0.2,2.6-0.2,4.6-0.2v-1.2c0-0.9-0.3-1.5-0.8-1.7c-0.5-0.3-1.6-0.4-3.3-0.4c-1.3,0-3,0.3-5.1,0.9
		c-0.6,0.2-1.2,0.4-1.7,0.6l-1.5-4.1c1.6-1,3.9-1.7,6.8-2.2c1-0.2,2.2-0.2,3.5-0.2c1.4,0,2.7,0.1,3.9,0.4c1.2,0.3,2.1,0.8,2.9,1.4
		c1.5,1.2,2.1,3.4,2.1,6.4V59z M134.5,59.8c-1.4,4.7-3.8,7.5-7.1,8.8c-1,0.4-2.3,0.6-3.8,0.6c-0.7,0-1.5-0.1-2.3-0.2
		c-0.7-0.1-1.3-0.2-1.3-0.2v-5.5c1,0.1,0.9,0.2,1.4,0.3s1.1,0.1,1.4,0.1s0.8,0,1.4-0.1s1.1-0.4,1.6-0.7c1.1-0.7,2-1.8,2.4-3.8h-2.8
		l-7.7-22h7.6l3.2,11.8l1.5,6.3L134,37h7.6L134.5,59.8z M183,59h-7V47h-10v12h-8V29h8v13h10V29h7V59z M208.5,50h-13.1
		c0.3,3,2.1,4.4,5.6,4.4c1.7,0,3.3-0.4,4.9-0.8c0.5-0.1,0.8-0.3,1.1-0.5l1.1,3.8c-1.3,1.1-3.3,1.8-6,2.2c-0.9,0.1-2,0.2-3.4,0.2
		s-2.8-0.3-4.2-0.8s-2.5-1.3-3.5-2.2c-1.9-2-2.9-4.8-2.9-8.4c0-3.3,1-5.9,2.9-8c2-2.1,4.8-3.2,8.2-3.2c4.3,0,7.1,1.5,8.5,4.5
		c0.5,1.1,0.8,2.8,0.8,4.4C208.8,47.2,208.7,48,208.5,50z M221,59h-7V27h7V59z M234,59h-7V27h7V59z M258.7,56.5
		c-2.1,1.9-4.8,2.8-8.2,2.8c-5.1,0-8.4-2-10.1-5.9c-0.4-0.9-0.6-1.8-0.8-2.7s-0.2-2.1-0.2-3.5s0.3-2.8,0.9-4.2s1.4-2.5,2.4-3.5
		c2.1-1.9,4.8-2.8,8.2-2.8c5.1,0,8.4,2,10.1,5.9c0.7,1.6,1,3.4,1,5.6C262,51.7,260.9,54.5,258.7,56.5z"/>
	<path class="st0" d="M102.3,51.9c0,0.5,0.1,0.9,0.2,1.3s0.4,0.7,0.6,0.9c0.5,0.5,1.2,0.7,2,0.7c0.8,0,1.6-0.2,2.4-0.6
		c0.2-0.1,0.5-0.2,0.5-0.3v-5.2c-2,0-2.9,0.2-3.9,0.7C102.9,49.8,102.3,50.6,102.3,51.9z"/>
	<path class="st0" d="M250.7,41.7c-2,0-3.3,1.1-3.7,3.4c-0.1,0.8-0.2,1.6-0.2,2.6c0,4.4,1.3,6.5,3.8,6.5c1.4,0,2.4-0.5,3-1.5
		c0.6-1,0.8-2.5,0.8-4.7C254.4,43.8,253.2,41.7,250.7,41.7z"/>
</g>
</svg>
