<?xml version="1.0" encoding="utf-8"?>
<!-- Generator: Adobe Illustrator 19.0.1, SVG Export Plug-In . SVG Version: 6.00 Build 0)  -->
<svg version="1.1" id="Layer_1" xmlns="http://www.w3.org/2000/svg" xmlns:xlink="http://www.w3.org/1999/xlink" x="0px" y="0px"
	 viewBox="-918 259 1189.8 283" style="enable-background:new -918 259 1189.8 283;" xml:space="preserve">
<style type="text/css">
	.st0{fill:#FFFFFF;}
	.st1{display:none;fill:#1318F4;stroke:#000000;stroke-miterlimit:10;}
</style>
<rect x="-918" y="258.1" class="st0" width="485" height="283"/>
<rect x="-211" y="258.1" class="st0" width="482.9" height="283"/>
<rect x="-460.4" y="258.1" class="st0" width="272.4" height="116.8"/>
<rect x="-460.4" y="424.4" class="st0" width="283.4" height="116.8"/>
<rect x="-819" y="235" class="st1" width="961.5" height="330"/>
<g>
	<path class="st0" d="M-290.5,396.5c-1.6,0-2.7,0.8-3.3,2.5c-0.2,0.6-0.4,1.2-0.4,2.2h6.5c0,0,0-0.6,0-0.8c0-1.2-0.2-2.1-0.6-2.8
		C-288.7,396.9-289.4,396.5-290.5,396.5z"/>
	<path class="st0" d="M-489.8,355.1v89h333v-89H-489.8z M-400.6,412c-1.9,1.6-4.6,2.4-8,2.4c-3,0-5.7-0.4-8-1.3
		c-0.6-0.2-1.1-0.4-1.4-0.6l0.9-5.8c1.4,0.8,3.2,1.4,5.5,1.7c0.8,0.1,1.7,0.2,2.8,0.2c2.4,0,3.5-0.8,3.5-2.5c0-0.9-0.4-1.6-1.3-2.3
		c-0.5-0.4-1.7-1-3.5-1.8c-1.8-0.8-3.1-1.5-3.9-2.1c-0.8-0.6-1.6-1.2-2.2-1.9c-1.4-1.6-2.1-3.5-2.1-5.7c0-2.6,1-4.6,2.9-6
		c1.8-1.3,4.4-2,7.7-2c3.6,0,6.4,0.6,8.4,1.7l-1.2,5.6c-1-0.8-2.6-1.4-4.6-1.7c-0.7-0.1-1.5-0.2-2.5-0.2s-1.9,0.2-2.5,0.7
		c-0.7,0.5-1,1-1,1.6c0,0.6,0.1,1.1,0.3,1.4c0.2,0.4,0.5,0.7,0.9,1c0.7,0.6,1.9,1.2,3.5,1.9s2.9,1.3,3.9,1.9s1.9,1.2,2.6,1.9
		c1.4,1.5,2.2,3.3,2.2,5.4C-397.8,408.4-398.7,410.5-400.6,412z M-374.8,414.1h-4.4c-0.8,0-1.6,0.1-1.8-0.1
		c-0.4-0.3-0.8-0.8-0.8-1.7v-0.2c-1,1.5-3.6,2.2-6,2.2c-2.2,0-3.9-0.7-5.2-2c-1.3-1.3-1.9-3-1.9-5.1c0-1.3,0.4-2.5,1.1-3.4
		c0.7-1,1.6-1.6,2.5-2.1s1.8-0.7,2.6-0.9c0.8-0.2,1.6-0.3,2.4-0.4c1.3-0.2,2.6-0.2,4.6-0.2V399c0-0.9-0.3-1.5-0.8-1.7
		c-0.5-0.3-1.6-0.4-3.3-0.4c-1.3,0-3,0.3-5.1,0.9c-0.6,0.2-1.2,0.4-1.7,0.6l-1.5-4.1c1.6-1,3.9-1.7,6.8-2.2c1-0.2,2.2-0.2,3.5-0.2
		c1.4,0,2.7,0.1,3.9,0.4c1.2,0.3,2.1,0.8,2.9,1.4c1.5,1.2,2.1,3.4,2.1,6.4v14H-374.8z M-355.3,415c-1.4,4.7-3.8,7.5-7.1,8.8
		c-1,0.4-2.3,0.6-3.8,0.6c-0.7,0-1.5-0.1-2.3-0.2c-0.7-0.1-1.3-0.2-1.3-0.2v-5.5c1,0.1,0.9,0.2,1.4,0.3s1.1,0.1,1.4,0.1
		c0.3,0,0.8,0,1.4-0.1s1.1-0.4,1.6-0.7c1.1-0.7,2-1.8,2.4-3.8h-2.8l-7.7-22h7.6l3.2,11.8l1.5,6.3l4-18.2h7.6L-355.3,415z
		 M-306.8,414.1h-7v-12h-10v12h-8v-30h8v13h10v-13h7V414.1z M-281.3,405.1h-13.1c0.3,3,2.1,4.4,5.6,4.4c1.7,0,3.3-0.4,4.9-0.8
		c0.5-0.1,0.8-0.3,1.1-0.5l1.1,3.8c-1.3,1.1-3.3,1.8-6,2.2c-0.9,0.1-2,0.2-3.4,0.2s-2.8-0.3-4.2-0.8s-2.5-1.3-3.5-2.2
		c-1.9-2-2.9-4.8-2.9-8.4c0-3.3,1-5.9,2.9-8c2-2.1,4.8-3.2,8.2-3.2c4.3,0,7.1,1.5,8.5,4.5c0.5,1.1,0.8,2.8,0.8,4.4
		C-281,402.4-281.1,403.1-281.3,405.1z M-268.8,414.1h-7v-32h7V414.1z M-255.8,414.1h-7v-32h7V414.1z M-231.1,411.6
		c-2.1,1.9-4.8,2.8-8.2,2.8c-5.1,0-8.4-2-10.1-5.9c-0.4-0.9-0.6-1.8-0.8-2.7c-0.2-0.9-0.2-2.1-0.2-3.5c0-1.4,0.3-2.8,0.9-4.2
		c0.6-1.4,1.4-2.5,2.4-3.5c2.1-1.9,4.8-2.8,8.2-2.8c5.1,0,8.4,2,10.1,5.9c0.7,1.6,1,3.4,1,5.6C-227.8,406.9-228.9,409.6-231.1,411.6
		z"/>
	<path class="st0" d="M-387.5,407c0,0.5,0.1,0.9,0.2,1.3s0.4,0.7,0.6,0.9c0.5,0.5,1.2,0.7,2,0.7s1.6-0.2,2.4-0.6
		c0.2-0.1,0.5-0.2,0.5-0.3v-5.2c-2,0-2.9,0.2-3.9,0.7C-386.9,405-387.5,405.8-387.5,407z"/>
	<path class="st0" d="M-239.1,396.9c-2,0-3.3,1.1-3.7,3.4c-0.1,0.8-0.2,1.6-0.2,2.6c0,4.4,1.3,6.5,3.8,6.5c1.4,0,2.4-0.5,3-1.5
		s0.8-2.5,0.8-4.7C-235.4,399-236.6,396.9-239.1,396.9z"/>
</g>
</svg>
