<?xml version="1.0" encoding="utf-8"?>
<!-- Generator: Adobe Illustrator 19.0.1, SVG Export Plug-In . SVG Version: 6.00 Build 0)  -->
<svg version="1.1" id="Layer_1" xmlns="http://www.w3.org/2000/svg" xmlns:xlink="http://www.w3.org/1999/xlink" x="0px" y="0px"
	 viewBox="0 0 168 89" style="enable-background:new 0 0 168 89;" xml:space="preserve">
<style type="text/css">
	.st0{fill:#FFFFFF;}
</style>
<g>
	<path class="st0" d="M127.7,66.2c0,2.7,1.1,4.4,3.4,5.3c0.9,0.4,2,0.5,3.2,0.5s2.4-0.1,3.3-0.2s1.8-0.4,2.4-0.8
		c1.5-0.8,2.2-2,2.2-3.6c0-1.4-0.3-2.4-0.9-2.9c-1.2-1-3-1.5-5.5-1.5h-7.2C128,63.9,127.7,65,127.7,66.2z"/>
	<path class="st0" d="M35.7,36.1c0.9-0.2,1.6-0.6,2.3-1.1c1.2-1,1.8-2.6,1.8-4.6c0-2.1-0.7-3.5-2-4.2c-1.3-0.8-3.1-1.1-5.4-1.1
		c-2.3,0-3.7,0.1-4.1,0.4v10.7c0.6,0.2,1.8,0.2,3.5,0.2C33.5,36.4,34.8,36.3,35.7,36.1z"/>
	<path class="st0" d="M0,0v89h168V0H0z M52,54.7c-0.6,1.7-1.6,3.2-3,4.4c-1.4,1.2-3.3,2.2-5.7,2.9c-2.4,0.7-5.3,1-8.8,1
		s-7.4,0-11.6,0h-5.7V17.7h5.4h10.7c11.5,0,17.2,3.8,17.2,11.5c0,3.8-1.3,6.6-3.8,8.6c-0.8,0.6-1.8,1.1-2.9,1.4
		c2.7,0.3,4.8,1.4,6.5,3.1c1.7,1.8,2.6,3.9,2.6,6.4C52.8,51,52.6,53,52,54.7z M70.8,63H59.9V14h10.9V63z M107.3,58.8
		c-3.1,2.8-7.2,4.2-12.4,4.2c-7.7,0-12.7-3-15.2-8.9c-0.5-1.3-0.9-2.7-1.2-4.1c-0.2-1.4-0.4-3.2-0.4-5.3s0.4-4.2,1.3-6.3
		c0.9-2.1,2.1-3.8,3.6-5.2c3.1-2.8,7.2-4.2,12.4-4.2c7.7,0,12.7,3,15.2,8.9c1,2.4,1.5,5.2,1.5,8.4C112.2,51.7,110.6,55.9,107.3,58.8
		z M154.2,36.9h-5.4c0.2,0.9,0.3,2,0.3,3.3s-0.3,2.6-0.9,3.9s-1.6,2.4-2.8,3.3c-2.7,1.9-6.6,2.9-12,2.9c-1.2,0-2.3-0.1-3.4-0.2
		c-0.7,0.7-1.1,1.6-1.1,2.6c0,1,0.3,1.7,0.9,2c0.6,0.4,1.7,0.5,3.3,0.5h6.7c4.8,0,8.4,1,10.6,3c1.8,1.7,2.7,4,2.7,6.9
		c0,4.1-2,7.3-5.9,9.6c-3.5,2.1-7.8,3.1-12.8,3.1c-8.9,0-14.4-1.9-16.6-5.8c-0.7-1.2-1-2.5-1-4c0-1.5,0.4-2.8,1.3-4
		c0.8-1.2,2.1-2.2,3.8-2.9c-1.8-1.1-2.7-2.8-2.7-5.1c0-2.2,1-4.1,2.9-5.7c0.7-0.6,1.6-1.1,2.6-1.6c-4.5-1.8-6.7-4.8-6.7-9.1
		c0-5.4,3-8.7,8.9-10.1c1.9-0.4,4.1-0.7,6.6-0.7c4.9,0,8.7,0.8,11.4,2.5c1.6-1.6,3.5-2.5,5.7-2.5h3.8V36.9z"/>
	<path class="st0" d="M95.3,36.5c-3.1,0-4.9,1.7-5.5,5.2c-0.2,1.1-0.3,2.4-0.3,3.9c0,6.6,1.9,9.9,5.7,9.9c2.1,0,3.6-0.8,4.5-2.3
		c0.8-1.4,1.3-3.8,1.3-7C100.9,39.7,99,36.5,95.3,36.5z"/>
	<path class="st0" d="M33.4,43.3c-2.8,0-4.5,0.1-5.2,0.2v11.6c0.7,0.5,2.5,0.7,5.2,0.7s4.7-0.5,6-1.5c1.3-1,1.9-2.7,1.9-5
		C41.4,45.3,38.7,43.3,33.4,43.3z"/>
	<path class="st0" d="M133.5,34.6c-2.6,0-4.2,0.9-4.9,2.6c-0.3,0.7-0.4,1.6-0.4,2.9c0,1.3,0.4,2.3,1.3,3.2c0.8,0.9,2.1,1.3,3.8,1.3
		c1.7,0,2.9-0.3,3.5-0.8c1.1-0.9,1.7-2.3,1.7-4.1C138.5,36.3,136.9,34.6,133.5,34.6z"/>
</g>
</svg>
